%TF.GenerationSoftware,KiCad,Pcbnew,10.0.1*%
%TF.CreationDate,2026-05-03T20:31:43+03:00*%
%TF.ProjectId,Wristband_PCB,57726973-7462-4616-9e64-5f5043422e6b,rev?*%
%TF.SameCoordinates,Original*%
%TF.FileFunction,Copper,L2,Bot*%
%TF.FilePolarity,Positive*%
%FSLAX46Y46*%
G04 Gerber Fmt 4.6, Leading zero omitted, Abs format (unit mm)*
G04 Created by KiCad (PCBNEW 10.0.1) date 2026-05-03 20:31:43*
%MOMM*%
%LPD*%
G01*
G04 APERTURE LIST*
%TA.AperFunction,ComponentPad*%
%ADD10R,1.508000X1.508000*%
%TD*%
%TA.AperFunction,ComponentPad*%
%ADD11C,1.508000*%
%TD*%
%TA.AperFunction,ComponentPad*%
%ADD12C,1.348000*%
%TD*%
%TA.AperFunction,ComponentPad*%
%ADD13C,1.524000*%
%TD*%
%TA.AperFunction,ComponentPad*%
%ADD14C,1.600000*%
%TD*%
G04 APERTURE END LIST*
D10*
%TO.P,DS1,1,VDD_1*%
%TO.N,+3.3V*%
X130520000Y-60340000D03*
D11*
%TO.P,DS1,2,GND_2*%
%TO.N,GND*%
X133060000Y-60340000D03*
%TO.P,DS1,3,SCK_3*%
%TO.N,/SCL*%
X135600000Y-60340000D03*
%TO.P,DS1,4,SDA_4*%
%TO.N,/SDA*%
X138140000Y-60340000D03*
%TD*%
D12*
%TO.P,U3,0,GPIO0_0*%
%TO.N,unconnected-(U3-GPIO0-Pad0)*%
X134290000Y-86010000D03*
%TO.P,U3,1,GPIO1_1*%
%TO.N,unconnected-(U3-GPIO1-Pad1)*%
X134290000Y-83470000D03*
%TO.P,U3,2,GPIO2_2*%
%TO.N,unconnected-(U3-GPIO2-Pad2)*%
X134290000Y-80930000D03*
%TO.P,U3,3,GPIO3_3*%
%TO.N,unconnected-(U3-GPIO3-Pad3)*%
X134290000Y-78390000D03*
%TO.P,U3,3.3,3V3_3.3*%
%TO.N,+3.3V*%
X134290000Y-73310000D03*
%TO.P,U3,4,GPIO4_4*%
%TO.N,unconnected-(U3-GPIO4-Pad4)*%
X134290000Y-75850000D03*
%TO.P,U3,5,GPIO5_5*%
%TO.N,unconnected-(U3-GPIO5-Pad5)*%
X119050000Y-68230000D03*
%TO.P,U3,5V,5V_5V*%
%TO.N,unconnected-(U3-Pad5V)*%
X134290000Y-68230000D03*
%TO.P,U3,6,GPIO6_6*%
%TO.N,unconnected-(U3-GPIO6-Pad6)*%
X119050000Y-70770000D03*
%TO.P,U3,7,GPIO7_7*%
%TO.N,unconnected-(U3-GPIO7-Pad7)*%
X119050000Y-73310000D03*
%TO.P,U3,8,GPIO8_8*%
%TO.N,/SDA*%
X119050000Y-75850000D03*
%TO.P,U3,9,GPIO9_9*%
%TO.N,/SCL*%
X119050000Y-78390000D03*
%TO.P,U3,10,GPIO10_10*%
%TO.N,unconnected-(U3-GPIO10-Pad10)*%
X119050000Y-80930000D03*
%TO.P,U3,20,GPIO20_20*%
%TO.N,unconnected-(U3-GPIO20-Pad20)*%
X119050000Y-83470000D03*
%TO.P,U3,21,GPIO21_21*%
%TO.N,unconnected-(U3-GPIO21-Pad21)*%
X119050000Y-86010000D03*
%TO.P,U3,G,GND_G*%
%TO.N,GND*%
X134290000Y-70770000D03*
%TD*%
D13*
%TO.P,U1,1,GND_1*%
%TO.N,GND*%
X149660000Y-86640000D03*
%TO.P,U1,2,VCC_2*%
%TO.N,+3.3V*%
X149660000Y-84100000D03*
%TO.P,U1,3,CS_3*%
%TO.N,unconnected-(U1-CS-Pad3)*%
X149660000Y-81560000D03*
%TO.P,U1,4,INT1_4*%
%TO.N,unconnected-(U1-INT1-Pad4)*%
X149660000Y-79020000D03*
%TO.P,U1,5,INT2_5*%
%TO.N,unconnected-(U1-INT2-Pad5)*%
X149660000Y-76480000D03*
%TO.P,U1,6,SD0_6*%
%TO.N,unconnected-(U1-SD0-Pad6)*%
X149660000Y-73940000D03*
%TO.P,U1,7,SDA_7*%
%TO.N,/SDA*%
X149660000Y-71400000D03*
%TO.P,U1,8,SCL_8*%
%TO.N,/SCL*%
X149660000Y-68860000D03*
%TD*%
D14*
%TO.P,U2,1,3V3_1*%
%TO.N,+3.3V*%
X142740000Y-71520000D03*
%TO.P,U2,2,GND_2*%
%TO.N,unconnected-(U2-GND-Pad2)*%
X142740000Y-74060000D03*
%TO.P,U2,3,SCL_3*%
%TO.N,/SCL*%
X142740000Y-76600000D03*
%TO.P,U2,4,SDA_4*%
%TO.N,/SDA*%
X142740000Y-79140000D03*
%TO.P,U2,5,RST_5*%
%TO.N,unconnected-(U2-RST-Pad5)*%
X142740000Y-81680000D03*
%TO.P,U2,6,NC_6*%
%TO.N,unconnected-(U2-NC-Pad6)*%
X142740000Y-84220000D03*
%TO.P,U2,7,NC_7*%
%TO.N,unconnected-(U2-NC-Pad7)*%
X127500000Y-84220000D03*
%TO.P,U2,8,INT_8*%
%TO.N,unconnected-(U2-INT-Pad8)*%
X127500000Y-81680000D03*
%TO.P,U2,9,TX_9*%
%TO.N,unconnected-(U2-TX-Pad9)*%
X127500000Y-79140000D03*
%TO.P,U2,10,RX_10*%
%TO.N,unconnected-(U2-RX-Pad10)*%
X127500000Y-76600000D03*
%TO.P,U2,11,GND_11*%
%TO.N,GND*%
X127500000Y-74060000D03*
%TO.P,U2,12,3V3_12*%
%TO.N,unconnected-(U2-3V3-Pad12)*%
X127500000Y-71520000D03*
%TD*%
M02*
