%TF.GenerationSoftware,KiCad,Pcbnew,10.0.1*%
%TF.CreationDate,2026-05-03T20:31:43+03:00*%
%TF.ProjectId,Wristband_PCB,57726973-7462-4616-9e64-5f5043422e6b,rev?*%
%TF.SameCoordinates,Original*%
%TF.FileFunction,Legend,Bot*%
%TF.FilePolarity,Positive*%
%FSLAX46Y46*%
G04 Gerber Fmt 4.6, Leading zero omitted, Abs format (unit mm)*
G04 Created by KiCad (PCBNEW 10.0.1) date 2026-05-03 20:31:43*
%MOMM*%
%LPD*%
G01*
G04 APERTURE LIST*
%ADD10C,0.150000*%
%ADD11C,0.100000*%
%ADD12C,0.120000*%
G04 APERTURE END LIST*
D10*
X142231904Y-64624819D02*
X142231904Y-65434342D01*
X142231904Y-65434342D02*
X142184285Y-65529580D01*
X142184285Y-65529580D02*
X142136666Y-65577200D01*
X142136666Y-65577200D02*
X142041428Y-65624819D01*
X142041428Y-65624819D02*
X141850952Y-65624819D01*
X141850952Y-65624819D02*
X141755714Y-65577200D01*
X141755714Y-65577200D02*
X141708095Y-65529580D01*
X141708095Y-65529580D02*
X141660476Y-65434342D01*
X141660476Y-65434342D02*
X141660476Y-64624819D01*
X141231904Y-64720057D02*
X141184285Y-64672438D01*
X141184285Y-64672438D02*
X141089047Y-64624819D01*
X141089047Y-64624819D02*
X140850952Y-64624819D01*
X140850952Y-64624819D02*
X140755714Y-64672438D01*
X140755714Y-64672438D02*
X140708095Y-64720057D01*
X140708095Y-64720057D02*
X140660476Y-64815295D01*
X140660476Y-64815295D02*
X140660476Y-64910533D01*
X140660476Y-64910533D02*
X140708095Y-65053390D01*
X140708095Y-65053390D02*
X141279523Y-65624819D01*
X141279523Y-65624819D02*
X140660476Y-65624819D01*
D11*
X143766115Y-90842419D02*
X143766115Y-89842419D01*
X143766115Y-89842419D02*
X143528020Y-89842419D01*
X143528020Y-89842419D02*
X143385163Y-89890038D01*
X143385163Y-89890038D02*
X143289925Y-89985276D01*
X143289925Y-89985276D02*
X143242306Y-90080514D01*
X143242306Y-90080514D02*
X143194687Y-90270990D01*
X143194687Y-90270990D02*
X143194687Y-90413847D01*
X143194687Y-90413847D02*
X143242306Y-90604323D01*
X143242306Y-90604323D02*
X143289925Y-90699561D01*
X143289925Y-90699561D02*
X143385163Y-90794800D01*
X143385163Y-90794800D02*
X143528020Y-90842419D01*
X143528020Y-90842419D02*
X143766115Y-90842419D01*
X142432782Y-90318609D02*
X142766115Y-90318609D01*
X142766115Y-90842419D02*
X142766115Y-89842419D01*
X142766115Y-89842419D02*
X142289925Y-89842419D01*
X141337544Y-90842419D02*
X141670877Y-90366228D01*
X141908972Y-90842419D02*
X141908972Y-89842419D01*
X141908972Y-89842419D02*
X141528020Y-89842419D01*
X141528020Y-89842419D02*
X141432782Y-89890038D01*
X141432782Y-89890038D02*
X141385163Y-89937657D01*
X141385163Y-89937657D02*
X141337544Y-90032895D01*
X141337544Y-90032895D02*
X141337544Y-90175752D01*
X141337544Y-90175752D02*
X141385163Y-90270990D01*
X141385163Y-90270990D02*
X141432782Y-90318609D01*
X141432782Y-90318609D02*
X141528020Y-90366228D01*
X141528020Y-90366228D02*
X141908972Y-90366228D01*
X140766115Y-90842419D02*
X140861353Y-90794800D01*
X140861353Y-90794800D02*
X140908972Y-90747180D01*
X140908972Y-90747180D02*
X140956591Y-90651942D01*
X140956591Y-90651942D02*
X140956591Y-90366228D01*
X140956591Y-90366228D02*
X140908972Y-90270990D01*
X140908972Y-90270990D02*
X140861353Y-90223371D01*
X140861353Y-90223371D02*
X140766115Y-90175752D01*
X140766115Y-90175752D02*
X140623258Y-90175752D01*
X140623258Y-90175752D02*
X140528020Y-90223371D01*
X140528020Y-90223371D02*
X140480401Y-90270990D01*
X140480401Y-90270990D02*
X140432782Y-90366228D01*
X140432782Y-90366228D02*
X140432782Y-90651942D01*
X140432782Y-90651942D02*
X140480401Y-90747180D01*
X140480401Y-90747180D02*
X140528020Y-90794800D01*
X140528020Y-90794800D02*
X140623258Y-90842419D01*
X140623258Y-90842419D02*
X140766115Y-90842419D01*
X140004210Y-90842419D02*
X140004210Y-89842419D01*
X140004210Y-90223371D02*
X139908972Y-90175752D01*
X139908972Y-90175752D02*
X139718496Y-90175752D01*
X139718496Y-90175752D02*
X139623258Y-90223371D01*
X139623258Y-90223371D02*
X139575639Y-90270990D01*
X139575639Y-90270990D02*
X139528020Y-90366228D01*
X139528020Y-90366228D02*
X139528020Y-90651942D01*
X139528020Y-90651942D02*
X139575639Y-90747180D01*
X139575639Y-90747180D02*
X139623258Y-90794800D01*
X139623258Y-90794800D02*
X139718496Y-90842419D01*
X139718496Y-90842419D02*
X139908972Y-90842419D01*
X139908972Y-90842419D02*
X140004210Y-90794800D01*
X138956591Y-90842419D02*
X139051829Y-90794800D01*
X139051829Y-90794800D02*
X139099448Y-90747180D01*
X139099448Y-90747180D02*
X139147067Y-90651942D01*
X139147067Y-90651942D02*
X139147067Y-90366228D01*
X139147067Y-90366228D02*
X139099448Y-90270990D01*
X139099448Y-90270990D02*
X139051829Y-90223371D01*
X139051829Y-90223371D02*
X138956591Y-90175752D01*
X138956591Y-90175752D02*
X138813734Y-90175752D01*
X138813734Y-90175752D02*
X138718496Y-90223371D01*
X138718496Y-90223371D02*
X138670877Y-90270990D01*
X138670877Y-90270990D02*
X138623258Y-90366228D01*
X138623258Y-90366228D02*
X138623258Y-90651942D01*
X138623258Y-90651942D02*
X138670877Y-90747180D01*
X138670877Y-90747180D02*
X138718496Y-90794800D01*
X138718496Y-90794800D02*
X138813734Y-90842419D01*
X138813734Y-90842419D02*
X138956591Y-90842419D01*
X138337543Y-90175752D02*
X137956591Y-90175752D01*
X138194686Y-89842419D02*
X138194686Y-90699561D01*
X138194686Y-90699561D02*
X138147067Y-90794800D01*
X138147067Y-90794800D02*
X138051829Y-90842419D01*
X138051829Y-90842419D02*
X137956591Y-90842419D01*
X136813733Y-90842419D02*
X136623257Y-90842419D01*
X136623257Y-90842419D02*
X136528019Y-90794800D01*
X136528019Y-90794800D02*
X136480400Y-90747180D01*
X136480400Y-90747180D02*
X136385162Y-90604323D01*
X136385162Y-90604323D02*
X136337543Y-90413847D01*
X136337543Y-90413847D02*
X136337543Y-90032895D01*
X136337543Y-90032895D02*
X136385162Y-89937657D01*
X136385162Y-89937657D02*
X136432781Y-89890038D01*
X136432781Y-89890038D02*
X136528019Y-89842419D01*
X136528019Y-89842419D02*
X136718495Y-89842419D01*
X136718495Y-89842419D02*
X136813733Y-89890038D01*
X136813733Y-89890038D02*
X136861352Y-89937657D01*
X136861352Y-89937657D02*
X136908971Y-90032895D01*
X136908971Y-90032895D02*
X136908971Y-90270990D01*
X136908971Y-90270990D02*
X136861352Y-90366228D01*
X136861352Y-90366228D02*
X136813733Y-90413847D01*
X136813733Y-90413847D02*
X136718495Y-90461466D01*
X136718495Y-90461466D02*
X136528019Y-90461466D01*
X136528019Y-90461466D02*
X136432781Y-90413847D01*
X136432781Y-90413847D02*
X136385162Y-90366228D01*
X136385162Y-90366228D02*
X136337543Y-90270990D01*
X135432781Y-89842419D02*
X135908971Y-89842419D01*
X135908971Y-89842419D02*
X135956590Y-90318609D01*
X135956590Y-90318609D02*
X135908971Y-90270990D01*
X135908971Y-90270990D02*
X135813733Y-90223371D01*
X135813733Y-90223371D02*
X135575638Y-90223371D01*
X135575638Y-90223371D02*
X135480400Y-90270990D01*
X135480400Y-90270990D02*
X135432781Y-90318609D01*
X135432781Y-90318609D02*
X135385162Y-90413847D01*
X135385162Y-90413847D02*
X135385162Y-90651942D01*
X135385162Y-90651942D02*
X135432781Y-90747180D01*
X135432781Y-90747180D02*
X135480400Y-90794800D01*
X135480400Y-90794800D02*
X135575638Y-90842419D01*
X135575638Y-90842419D02*
X135813733Y-90842419D01*
X135813733Y-90842419D02*
X135908971Y-90794800D01*
X135908971Y-90794800D02*
X135956590Y-90747180D01*
X134766114Y-89842419D02*
X134670876Y-89842419D01*
X134670876Y-89842419D02*
X134575638Y-89890038D01*
X134575638Y-89890038D02*
X134528019Y-89937657D01*
X134528019Y-89937657D02*
X134480400Y-90032895D01*
X134480400Y-90032895D02*
X134432781Y-90223371D01*
X134432781Y-90223371D02*
X134432781Y-90461466D01*
X134432781Y-90461466D02*
X134480400Y-90651942D01*
X134480400Y-90651942D02*
X134528019Y-90747180D01*
X134528019Y-90747180D02*
X134575638Y-90794800D01*
X134575638Y-90794800D02*
X134670876Y-90842419D01*
X134670876Y-90842419D02*
X134766114Y-90842419D01*
X134766114Y-90842419D02*
X134861352Y-90794800D01*
X134861352Y-90794800D02*
X134908971Y-90747180D01*
X134908971Y-90747180D02*
X134956590Y-90651942D01*
X134956590Y-90651942D02*
X135004209Y-90461466D01*
X135004209Y-90461466D02*
X135004209Y-90223371D01*
X135004209Y-90223371D02*
X134956590Y-90032895D01*
X134956590Y-90032895D02*
X134908971Y-89937657D01*
X134908971Y-89937657D02*
X134861352Y-89890038D01*
X134861352Y-89890038D02*
X134766114Y-89842419D01*
X134004209Y-90842419D02*
X134004209Y-89842419D01*
X134004209Y-89842419D02*
X133670876Y-90556704D01*
X133670876Y-90556704D02*
X133337543Y-89842419D01*
X133337543Y-89842419D02*
X133337543Y-90842419D01*
X132432781Y-90842419D02*
X132432781Y-90318609D01*
X132432781Y-90318609D02*
X132480400Y-90223371D01*
X132480400Y-90223371D02*
X132575638Y-90175752D01*
X132575638Y-90175752D02*
X132766114Y-90175752D01*
X132766114Y-90175752D02*
X132861352Y-90223371D01*
X132432781Y-90794800D02*
X132528019Y-90842419D01*
X132528019Y-90842419D02*
X132766114Y-90842419D01*
X132766114Y-90842419D02*
X132861352Y-90794800D01*
X132861352Y-90794800D02*
X132908971Y-90699561D01*
X132908971Y-90699561D02*
X132908971Y-90604323D01*
X132908971Y-90604323D02*
X132861352Y-90509085D01*
X132861352Y-90509085D02*
X132766114Y-90461466D01*
X132766114Y-90461466D02*
X132528019Y-90461466D01*
X132528019Y-90461466D02*
X132432781Y-90413847D01*
X131528019Y-90842419D02*
X131528019Y-89842419D01*
X131528019Y-90794800D02*
X131623257Y-90842419D01*
X131623257Y-90842419D02*
X131813733Y-90842419D01*
X131813733Y-90842419D02*
X131908971Y-90794800D01*
X131908971Y-90794800D02*
X131956590Y-90747180D01*
X131956590Y-90747180D02*
X132004209Y-90651942D01*
X132004209Y-90651942D02*
X132004209Y-90366228D01*
X132004209Y-90366228D02*
X131956590Y-90270990D01*
X131956590Y-90270990D02*
X131908971Y-90223371D01*
X131908971Y-90223371D02*
X131813733Y-90175752D01*
X131813733Y-90175752D02*
X131623257Y-90175752D01*
X131623257Y-90175752D02*
X131528019Y-90223371D01*
X130670876Y-90794800D02*
X130766114Y-90842419D01*
X130766114Y-90842419D02*
X130956590Y-90842419D01*
X130956590Y-90842419D02*
X131051828Y-90794800D01*
X131051828Y-90794800D02*
X131099447Y-90699561D01*
X131099447Y-90699561D02*
X131099447Y-90318609D01*
X131099447Y-90318609D02*
X131051828Y-90223371D01*
X131051828Y-90223371D02*
X130956590Y-90175752D01*
X130956590Y-90175752D02*
X130766114Y-90175752D01*
X130766114Y-90175752D02*
X130670876Y-90223371D01*
X130670876Y-90223371D02*
X130623257Y-90318609D01*
X130623257Y-90318609D02*
X130623257Y-90413847D01*
X130623257Y-90413847D02*
X131099447Y-90509085D01*
X130194685Y-90842419D02*
X130194685Y-89842419D01*
X129718495Y-90175752D02*
X129718495Y-90842419D01*
X129718495Y-90270990D02*
X129670876Y-90223371D01*
X129670876Y-90223371D02*
X129575638Y-90175752D01*
X129575638Y-90175752D02*
X129432781Y-90175752D01*
X129432781Y-90175752D02*
X129337543Y-90223371D01*
X129337543Y-90223371D02*
X129289924Y-90318609D01*
X129289924Y-90318609D02*
X129289924Y-90842419D01*
X128813733Y-90318609D02*
X128480400Y-90318609D01*
X128337543Y-90842419D02*
X128813733Y-90842419D01*
X128813733Y-90842419D02*
X128813733Y-89842419D01*
X128813733Y-89842419D02*
X128337543Y-89842419D01*
X127480400Y-90175752D02*
X127480400Y-90985276D01*
X127480400Y-90985276D02*
X127528019Y-91080514D01*
X127528019Y-91080514D02*
X127575638Y-91128133D01*
X127575638Y-91128133D02*
X127670876Y-91175752D01*
X127670876Y-91175752D02*
X127813733Y-91175752D01*
X127813733Y-91175752D02*
X127908971Y-91128133D01*
X127480400Y-90794800D02*
X127575638Y-90842419D01*
X127575638Y-90842419D02*
X127766114Y-90842419D01*
X127766114Y-90842419D02*
X127861352Y-90794800D01*
X127861352Y-90794800D02*
X127908971Y-90747180D01*
X127908971Y-90747180D02*
X127956590Y-90651942D01*
X127956590Y-90651942D02*
X127956590Y-90366228D01*
X127956590Y-90366228D02*
X127908971Y-90270990D01*
X127908971Y-90270990D02*
X127861352Y-90223371D01*
X127861352Y-90223371D02*
X127766114Y-90175752D01*
X127766114Y-90175752D02*
X127575638Y-90175752D01*
X127575638Y-90175752D02*
X127480400Y-90223371D01*
X127099447Y-90175752D02*
X126861352Y-90842419D01*
X126623257Y-90175752D02*
X126861352Y-90842419D01*
X126861352Y-90842419D02*
X126956590Y-91080514D01*
X126956590Y-91080514D02*
X127004209Y-91128133D01*
X127004209Y-91128133D02*
X127099447Y-91175752D01*
X126242304Y-90175752D02*
X126242304Y-91175752D01*
X126242304Y-90223371D02*
X126147066Y-90175752D01*
X126147066Y-90175752D02*
X125956590Y-90175752D01*
X125956590Y-90175752D02*
X125861352Y-90223371D01*
X125861352Y-90223371D02*
X125813733Y-90270990D01*
X125813733Y-90270990D02*
X125766114Y-90366228D01*
X125766114Y-90366228D02*
X125766114Y-90651942D01*
X125766114Y-90651942D02*
X125813733Y-90747180D01*
X125813733Y-90747180D02*
X125861352Y-90794800D01*
X125861352Y-90794800D02*
X125956590Y-90842419D01*
X125956590Y-90842419D02*
X126147066Y-90842419D01*
X126147066Y-90842419D02*
X126242304Y-90794800D01*
X125480399Y-90175752D02*
X125099447Y-90175752D01*
X125337542Y-89842419D02*
X125337542Y-90699561D01*
X125337542Y-90699561D02*
X125289923Y-90794800D01*
X125289923Y-90794800D02*
X125194685Y-90842419D01*
X125194685Y-90842419D02*
X125099447Y-90842419D01*
%TO.C,U2*%
D12*
X126120000Y-66870000D02*
X144120000Y-66870000D01*
X126120000Y-88870000D02*
X126120000Y-66870000D01*
X144120000Y-66870000D02*
X144120000Y-88870000D01*
X144120000Y-88870000D02*
X126120000Y-88870000D01*
%TD*%
M02*
