%TF.GenerationSoftware,KiCad,Pcbnew,10.0.1*%
%TF.CreationDate,2026-05-03T20:31:43+03:00*%
%TF.ProjectId,Wristband_PCB,57726973-7462-4616-9e64-5f5043422e6b,rev?*%
%TF.SameCoordinates,Original*%
%TF.FileFunction,Copper,L1,Top*%
%TF.FilePolarity,Positive*%
%FSLAX46Y46*%
G04 Gerber Fmt 4.6, Leading zero omitted, Abs format (unit mm)*
G04 Created by KiCad (PCBNEW 10.0.1) date 2026-05-03 20:31:43*
%MOMM*%
%LPD*%
G01*
G04 APERTURE LIST*
%TA.AperFunction,ComponentPad*%
%ADD10R,1.508000X1.508000*%
%TD*%
%TA.AperFunction,ComponentPad*%
%ADD11C,1.508000*%
%TD*%
%TA.AperFunction,ComponentPad*%
%ADD12C,1.348000*%
%TD*%
%TA.AperFunction,ComponentPad*%
%ADD13C,1.524000*%
%TD*%
%TA.AperFunction,ComponentPad*%
%ADD14C,1.600000*%
%TD*%
%TA.AperFunction,Conductor*%
%ADD15C,1.000000*%
%TD*%
G04 APERTURE END LIST*
D10*
%TO.P,DS1,1,VDD_1*%
%TO.N,+3.3V*%
X130520000Y-60340000D03*
D11*
%TO.P,DS1,2,GND_2*%
%TO.N,GND*%
X133060000Y-60340000D03*
%TO.P,DS1,3,SCK_3*%
%TO.N,/SCL*%
X135600000Y-60340000D03*
%TO.P,DS1,4,SDA_4*%
%TO.N,/SDA*%
X138140000Y-60340000D03*
%TD*%
D12*
%TO.P,U3,0,GPIO0_0*%
%TO.N,unconnected-(U3-GPIO0-Pad0)*%
X134290000Y-86010000D03*
%TO.P,U3,1,GPIO1_1*%
%TO.N,unconnected-(U3-GPIO1-Pad1)*%
X134290000Y-83470000D03*
%TO.P,U3,2,GPIO2_2*%
%TO.N,unconnected-(U3-GPIO2-Pad2)*%
X134290000Y-80930000D03*
%TO.P,U3,3,GPIO3_3*%
%TO.N,unconnected-(U3-GPIO3-Pad3)*%
X134290000Y-78390000D03*
%TO.P,U3,3.3,3V3_3.3*%
%TO.N,+3.3V*%
X134290000Y-73310000D03*
%TO.P,U3,4,GPIO4_4*%
%TO.N,unconnected-(U3-GPIO4-Pad4)*%
X134290000Y-75850000D03*
%TO.P,U3,5,GPIO5_5*%
%TO.N,unconnected-(U3-GPIO5-Pad5)*%
X119050000Y-68230000D03*
%TO.P,U3,5V,5V_5V*%
%TO.N,unconnected-(U3-Pad5V)*%
X134290000Y-68230000D03*
%TO.P,U3,6,GPIO6_6*%
%TO.N,unconnected-(U3-GPIO6-Pad6)*%
X119050000Y-70770000D03*
%TO.P,U3,7,GPIO7_7*%
%TO.N,unconnected-(U3-GPIO7-Pad7)*%
X119050000Y-73310000D03*
%TO.P,U3,8,GPIO8_8*%
%TO.N,/SDA*%
X119050000Y-75850000D03*
%TO.P,U3,9,GPIO9_9*%
%TO.N,/SCL*%
X119050000Y-78390000D03*
%TO.P,U3,10,GPIO10_10*%
%TO.N,unconnected-(U3-GPIO10-Pad10)*%
X119050000Y-80930000D03*
%TO.P,U3,20,GPIO20_20*%
%TO.N,unconnected-(U3-GPIO20-Pad20)*%
X119050000Y-83470000D03*
%TO.P,U3,21,GPIO21_21*%
%TO.N,unconnected-(U3-GPIO21-Pad21)*%
X119050000Y-86010000D03*
%TO.P,U3,G,GND_G*%
%TO.N,GND*%
X134290000Y-70770000D03*
%TD*%
D13*
%TO.P,U1,1,GND_1*%
%TO.N,GND*%
X149660000Y-86640000D03*
%TO.P,U1,2,VCC_2*%
%TO.N,+3.3V*%
X149660000Y-84100000D03*
%TO.P,U1,3,CS_3*%
%TO.N,unconnected-(U1-CS-Pad3)*%
X149660000Y-81560000D03*
%TO.P,U1,4,INT1_4*%
%TO.N,unconnected-(U1-INT1-Pad4)*%
X149660000Y-79020000D03*
%TO.P,U1,5,INT2_5*%
%TO.N,unconnected-(U1-INT2-Pad5)*%
X149660000Y-76480000D03*
%TO.P,U1,6,SD0_6*%
%TO.N,unconnected-(U1-SD0-Pad6)*%
X149660000Y-73940000D03*
%TO.P,U1,7,SDA_7*%
%TO.N,/SDA*%
X149660000Y-71400000D03*
%TO.P,U1,8,SCL_8*%
%TO.N,/SCL*%
X149660000Y-68860000D03*
%TD*%
D14*
%TO.P,U2,1,3V3_1*%
%TO.N,+3.3V*%
X142740000Y-71520000D03*
%TO.P,U2,2,GND_2*%
%TO.N,unconnected-(U2-GND-Pad2)*%
X142740000Y-74060000D03*
%TO.P,U2,3,SCL_3*%
%TO.N,/SCL*%
X142740000Y-76600000D03*
%TO.P,U2,4,SDA_4*%
%TO.N,/SDA*%
X142740000Y-79140000D03*
%TO.P,U2,5,RST_5*%
%TO.N,unconnected-(U2-RST-Pad5)*%
X142740000Y-81680000D03*
%TO.P,U2,6,NC_6*%
%TO.N,unconnected-(U2-NC-Pad6)*%
X142740000Y-84220000D03*
%TO.P,U2,7,NC_7*%
%TO.N,unconnected-(U2-NC-Pad7)*%
X127500000Y-84220000D03*
%TO.P,U2,8,INT_8*%
%TO.N,unconnected-(U2-INT-Pad8)*%
X127500000Y-81680000D03*
%TO.P,U2,9,TX_9*%
%TO.N,unconnected-(U2-TX-Pad9)*%
X127500000Y-79140000D03*
%TO.P,U2,10,RX_10*%
%TO.N,unconnected-(U2-RX-Pad10)*%
X127500000Y-76600000D03*
%TO.P,U2,11,GND_11*%
%TO.N,GND*%
X127500000Y-74060000D03*
%TO.P,U2,12,3V3_12*%
%TO.N,unconnected-(U2-3V3-Pad12)*%
X127500000Y-71520000D03*
%TD*%
%TO.N,GND*%
D15*
X149660000Y-86640000D02*
X149640000Y-86640000D01*
X145500000Y-90500000D02*
X132000000Y-90500000D01*
X132000000Y-90500000D02*
X131000000Y-89500000D01*
X131000000Y-89500000D02*
X131000000Y-74060000D01*
X149640000Y-86640000D02*
X149500000Y-86500000D01*
X149500000Y-86500000D02*
X145500000Y-90500000D01*
X131138680Y-58000000D02*
X127000000Y-58000000D01*
X133000000Y-60500000D02*
X133000000Y-59861320D01*
X133000000Y-59861320D02*
X131138680Y-58000000D01*
X133060000Y-60340000D02*
X133060000Y-60440000D01*
X133060000Y-60440000D02*
X133000000Y-60500000D01*
X127000000Y-58000000D02*
X127000000Y-63480000D01*
X127000000Y-63480000D02*
X134290000Y-70770000D01*
%TO.N,/SCL*%
X119050000Y-78390000D02*
X124320000Y-73120000D01*
X124320000Y-73120000D02*
X124320000Y-58010000D01*
X124320000Y-58010000D02*
X125830000Y-56500000D01*
X125830000Y-56500000D02*
X131760000Y-56500000D01*
X131760000Y-56500000D02*
X135600000Y-60340000D01*
%TO.N,/SDA*%
X119050000Y-75850000D02*
X122820000Y-72080000D01*
X122820000Y-72080000D02*
X122820000Y-57388680D01*
X122820000Y-57388680D02*
X125208680Y-55000000D01*
X125208680Y-55000000D02*
X132800000Y-55000000D01*
X132800000Y-55000000D02*
X138140000Y-60340000D01*
%TO.N,GND*%
X127500000Y-74060000D02*
X131000000Y-74060000D01*
X131000000Y-74060000D02*
X134290000Y-70770000D01*
%TO.N,+3.3V*%
X141994415Y-86020000D02*
X138890000Y-82915585D01*
X130520000Y-62670000D02*
X130520000Y-60340000D01*
X138270000Y-70900000D02*
X138270000Y-66230000D01*
X138160000Y-66120000D02*
X138160000Y-65710000D01*
X138160000Y-65710000D02*
X137590000Y-65140000D01*
X132990000Y-65140000D02*
X130520000Y-62670000D01*
X142740000Y-71520000D02*
X138890000Y-71520000D01*
X137490000Y-73310000D02*
X138560000Y-72240000D01*
X138560000Y-71190000D02*
X138270000Y-70900000D01*
X138890000Y-82915585D02*
X138890000Y-71520000D01*
X149660000Y-84100000D02*
X147740000Y-86020000D01*
X138560000Y-72240000D02*
X138560000Y-71190000D01*
X138890000Y-71520000D02*
X138560000Y-71190000D01*
X134290000Y-73310000D02*
X137490000Y-73310000D01*
X147740000Y-86020000D02*
X141994415Y-86020000D01*
X138270000Y-66230000D02*
X138160000Y-66120000D01*
X137590000Y-65140000D02*
X132990000Y-65140000D01*
%TO.N,/SCL*%
X145670000Y-74801370D02*
X145670000Y-72850000D01*
X142740000Y-76600000D02*
X143871370Y-76600000D01*
X143390000Y-62590000D02*
X137850000Y-62590000D01*
X149660000Y-68860000D02*
X143390000Y-62590000D01*
X145670000Y-72850000D02*
X146325000Y-72195000D01*
X143871370Y-76600000D02*
X145670000Y-74801370D01*
X137850000Y-62590000D02*
X135600000Y-60340000D01*
X146325000Y-72195000D02*
X149660000Y-68860000D01*
%TO.N,/SDA*%
X144330000Y-79140000D02*
X147898000Y-75572000D01*
X147898000Y-73162000D02*
X149660000Y-71400000D01*
X142740000Y-79140000D02*
X144330000Y-79140000D01*
X138140000Y-60340000D02*
X143631845Y-60340000D01*
X151422000Y-69638000D02*
X149660000Y-71400000D01*
X151422000Y-68130155D02*
X151422000Y-69638000D01*
X147898000Y-75572000D02*
X147898000Y-73162000D01*
X143631845Y-60340000D02*
X151422000Y-68130155D01*
%TD*%
%TA.AperFunction,NonConductor*%
G36*
X156922539Y-51520184D02*
G01*
X156968294Y-51572988D01*
X156979500Y-51624499D01*
X156979500Y-94415500D01*
X156959815Y-94482539D01*
X156907011Y-94528294D01*
X156855500Y-94539500D01*
X111926549Y-94539500D01*
X111859510Y-94519815D01*
X111813755Y-94467011D01*
X111802549Y-94415500D01*
X111802549Y-90625258D01*
X116829500Y-90625258D01*
X116829500Y-90854741D01*
X116854446Y-91044215D01*
X116859452Y-91082238D01*
X116874334Y-91137779D01*
X116918842Y-91303887D01*
X117006650Y-91515876D01*
X117006657Y-91515890D01*
X117121392Y-91714617D01*
X117261081Y-91896661D01*
X117261089Y-91896670D01*
X117423330Y-92058911D01*
X117423338Y-92058918D01*
X117605382Y-92198607D01*
X117605385Y-92198608D01*
X117605388Y-92198611D01*
X117804112Y-92313344D01*
X117804117Y-92313346D01*
X117804123Y-92313349D01*
X117895480Y-92351190D01*
X118016113Y-92401158D01*
X118237762Y-92460548D01*
X118465266Y-92490500D01*
X118465273Y-92490500D01*
X118694727Y-92490500D01*
X118694734Y-92490500D01*
X118922238Y-92460548D01*
X119143887Y-92401158D01*
X119355888Y-92313344D01*
X119554612Y-92198611D01*
X119736661Y-92058919D01*
X119736665Y-92058914D01*
X119736670Y-92058911D01*
X119898911Y-91896670D01*
X119898914Y-91896665D01*
X119898919Y-91896661D01*
X120038611Y-91714612D01*
X120153344Y-91515888D01*
X120241158Y-91303887D01*
X120300548Y-91082238D01*
X120330500Y-90854734D01*
X120330500Y-90625266D01*
X120300548Y-90397762D01*
X120241158Y-90176113D01*
X120157407Y-89973920D01*
X120153349Y-89964123D01*
X120153346Y-89964117D01*
X120153344Y-89964112D01*
X120038611Y-89765388D01*
X120038608Y-89765385D01*
X120038607Y-89765382D01*
X119937764Y-89633962D01*
X119898919Y-89583339D01*
X119898918Y-89583338D01*
X119898911Y-89583330D01*
X119736670Y-89421089D01*
X119736661Y-89421081D01*
X119554617Y-89281392D01*
X119355890Y-89166657D01*
X119355876Y-89166650D01*
X119143887Y-89078842D01*
X118922238Y-89019452D01*
X118884215Y-89014446D01*
X118694741Y-88989500D01*
X118694734Y-88989500D01*
X118465266Y-88989500D01*
X118465258Y-88989500D01*
X118248715Y-89018009D01*
X118237762Y-89019452D01*
X118182658Y-89034217D01*
X118016112Y-89078842D01*
X117804123Y-89166650D01*
X117804109Y-89166657D01*
X117605382Y-89281392D01*
X117423338Y-89421081D01*
X117261081Y-89583338D01*
X117121392Y-89765382D01*
X117006657Y-89964109D01*
X117006650Y-89964123D01*
X116918842Y-90176112D01*
X116859453Y-90397759D01*
X116859451Y-90397770D01*
X116829500Y-90625258D01*
X111802549Y-90625258D01*
X111802549Y-68137559D01*
X117875500Y-68137559D01*
X117875500Y-68322440D01*
X117904419Y-68505030D01*
X117961546Y-68680849D01*
X117961547Y-68680852D01*
X118008153Y-68772319D01*
X118039398Y-68833642D01*
X118045479Y-68845575D01*
X118154135Y-68995129D01*
X118154139Y-68995134D01*
X118284865Y-69125860D01*
X118284870Y-69125864D01*
X118415318Y-69220639D01*
X118434428Y-69234523D01*
X118542106Y-69289388D01*
X118599147Y-69318452D01*
X118599150Y-69318453D01*
X118687059Y-69347016D01*
X118774971Y-69375580D01*
X118785150Y-69377192D01*
X118787263Y-69377527D01*
X118850397Y-69407457D01*
X118887328Y-69466769D01*
X118886330Y-69536631D01*
X118847719Y-69594864D01*
X118787263Y-69622473D01*
X118774969Y-69624420D01*
X118599150Y-69681546D01*
X118599147Y-69681547D01*
X118434424Y-69765479D01*
X118284870Y-69874135D01*
X118284865Y-69874139D01*
X118154139Y-70004865D01*
X118154135Y-70004870D01*
X118045479Y-70154424D01*
X117961547Y-70319147D01*
X117961546Y-70319150D01*
X117904419Y-70494969D01*
X117875500Y-70677559D01*
X117875500Y-70862440D01*
X117904420Y-71045029D01*
X117961546Y-71220849D01*
X117961547Y-71220852D01*
X118018588Y-71332799D01*
X118039533Y-71373907D01*
X118045479Y-71385575D01*
X118154135Y-71535129D01*
X118154139Y-71535134D01*
X118284865Y-71665860D01*
X118284870Y-71665864D01*
X118325858Y-71695643D01*
X118434428Y-71774523D01*
X118532580Y-71824534D01*
X118599147Y-71858452D01*
X118599150Y-71858453D01*
X118679713Y-71884629D01*
X118774971Y-71915580D01*
X118785150Y-71917192D01*
X118787263Y-71917527D01*
X118850397Y-71947457D01*
X118887328Y-72006769D01*
X118886330Y-72076631D01*
X118847719Y-72134864D01*
X118787263Y-72162473D01*
X118774969Y-72164420D01*
X118599150Y-72221546D01*
X118599147Y-72221547D01*
X118434424Y-72305479D01*
X118284870Y-72414135D01*
X118284865Y-72414139D01*
X118154139Y-72544865D01*
X118154135Y-72544870D01*
X118045479Y-72694424D01*
X117961547Y-72859147D01*
X117961546Y-72859150D01*
X117904419Y-73034969D01*
X117875500Y-73217559D01*
X117875500Y-73402440D01*
X117904419Y-73585030D01*
X117961546Y-73760849D01*
X117961547Y-73760852D01*
X118045479Y-73925575D01*
X118154135Y-74075129D01*
X118154139Y-74075134D01*
X118284865Y-74205860D01*
X118284870Y-74205864D01*
X118395637Y-74286340D01*
X118434428Y-74314523D01*
X118532580Y-74364534D01*
X118599147Y-74398452D01*
X118599150Y-74398453D01*
X118675524Y-74423268D01*
X118774633Y-74455470D01*
X118776903Y-74457022D01*
X118779649Y-74457219D01*
X118805575Y-74476628D01*
X118832308Y-74494907D01*
X118833379Y-74497442D01*
X118835582Y-74499091D01*
X118846898Y-74529431D01*
X118859507Y-74559266D01*
X118859037Y-74561977D01*
X118859999Y-74564555D01*
X118853117Y-74596189D01*
X118847593Y-74628112D01*
X118845552Y-74630962D01*
X118845147Y-74632828D01*
X118823996Y-74661082D01*
X118804447Y-74680631D01*
X118755084Y-74710881D01*
X118599150Y-74761546D01*
X118599147Y-74761547D01*
X118434424Y-74845479D01*
X118284870Y-74954135D01*
X118284865Y-74954139D01*
X118154139Y-75084865D01*
X118154135Y-75084870D01*
X118045479Y-75234424D01*
X117961547Y-75399147D01*
X117961546Y-75399150D01*
X117904419Y-75574969D01*
X117875500Y-75757559D01*
X117875500Y-75942440D01*
X117904419Y-76125030D01*
X117961546Y-76300849D01*
X117961547Y-76300852D01*
X118045479Y-76465575D01*
X118154135Y-76615129D01*
X118154139Y-76615134D01*
X118284865Y-76745860D01*
X118284870Y-76745864D01*
X118325850Y-76775637D01*
X118434428Y-76854523D01*
X118532580Y-76904534D01*
X118599147Y-76938452D01*
X118599150Y-76938453D01*
X118679713Y-76964629D01*
X118774633Y-76995470D01*
X118776903Y-76997022D01*
X118779649Y-76997219D01*
X118805575Y-77016628D01*
X118832308Y-77034907D01*
X118833379Y-77037442D01*
X118835582Y-77039091D01*
X118846898Y-77069431D01*
X118859507Y-77099266D01*
X118859037Y-77101977D01*
X118859999Y-77104555D01*
X118853117Y-77136189D01*
X118847593Y-77168112D01*
X118845552Y-77170962D01*
X118845147Y-77172828D01*
X118823996Y-77201082D01*
X118804447Y-77220631D01*
X118755084Y-77250881D01*
X118599150Y-77301546D01*
X118599147Y-77301547D01*
X118434424Y-77385479D01*
X118284870Y-77494135D01*
X118284865Y-77494139D01*
X118154139Y-77624865D01*
X118154135Y-77624870D01*
X118045479Y-77774424D01*
X117961547Y-77939147D01*
X117961546Y-77939150D01*
X117904419Y-78114969D01*
X117875500Y-78297559D01*
X117875500Y-78482440D01*
X117904419Y-78665030D01*
X117961546Y-78840849D01*
X117961547Y-78840852D01*
X118045479Y-79005575D01*
X118154135Y-79155129D01*
X118154139Y-79155134D01*
X118284865Y-79285860D01*
X118284870Y-79285864D01*
X118325850Y-79315637D01*
X118434428Y-79394523D01*
X118532580Y-79444534D01*
X118599147Y-79478452D01*
X118599150Y-79478453D01*
X118679713Y-79504629D01*
X118774971Y-79535580D01*
X118785150Y-79537192D01*
X118787263Y-79537527D01*
X118850397Y-79567457D01*
X118887328Y-79626769D01*
X118886330Y-79696631D01*
X118847719Y-79754864D01*
X118787263Y-79782473D01*
X118774969Y-79784420D01*
X118599150Y-79841546D01*
X118599147Y-79841547D01*
X118434424Y-79925479D01*
X118284870Y-80034135D01*
X118284865Y-80034139D01*
X118154139Y-80164865D01*
X118154135Y-80164870D01*
X118045479Y-80314424D01*
X117961547Y-80479147D01*
X117961546Y-80479150D01*
X117904419Y-80654969D01*
X117875500Y-80837559D01*
X117875500Y-81022440D01*
X117904419Y-81205030D01*
X117961546Y-81380849D01*
X117961547Y-81380852D01*
X118045479Y-81545575D01*
X118154135Y-81695129D01*
X118154139Y-81695134D01*
X118284865Y-81825860D01*
X118284870Y-81825864D01*
X118325850Y-81855637D01*
X118434428Y-81934523D01*
X118532580Y-81984534D01*
X118599147Y-82018452D01*
X118599150Y-82018453D01*
X118679713Y-82044629D01*
X118774971Y-82075580D01*
X118785150Y-82077192D01*
X118787263Y-82077527D01*
X118850397Y-82107457D01*
X118887328Y-82166769D01*
X118886330Y-82236631D01*
X118847719Y-82294864D01*
X118787263Y-82322473D01*
X118774969Y-82324420D01*
X118599150Y-82381546D01*
X118599147Y-82381547D01*
X118434424Y-82465479D01*
X118284870Y-82574135D01*
X118284865Y-82574139D01*
X118154139Y-82704865D01*
X118154135Y-82704870D01*
X118045479Y-82854424D01*
X117961547Y-83019147D01*
X117961546Y-83019150D01*
X117904419Y-83194969D01*
X117875500Y-83377559D01*
X117875500Y-83562440D01*
X117904419Y-83745030D01*
X117961546Y-83920849D01*
X117961547Y-83920852D01*
X118045479Y-84085575D01*
X118154135Y-84235129D01*
X118154139Y-84235134D01*
X118284865Y-84365860D01*
X118284870Y-84365864D01*
X118325850Y-84395637D01*
X118434428Y-84474523D01*
X118532580Y-84524534D01*
X118599147Y-84558452D01*
X118599150Y-84558453D01*
X118679713Y-84584629D01*
X118774971Y-84615580D01*
X118785150Y-84617192D01*
X118787263Y-84617527D01*
X118850397Y-84647457D01*
X118887328Y-84706769D01*
X118886330Y-84776631D01*
X118847719Y-84834864D01*
X118787263Y-84862473D01*
X118774969Y-84864420D01*
X118599150Y-84921546D01*
X118599147Y-84921547D01*
X118434424Y-85005479D01*
X118284870Y-85114135D01*
X118284865Y-85114139D01*
X118154139Y-85244865D01*
X118154135Y-85244870D01*
X118045479Y-85394424D01*
X117961547Y-85559147D01*
X117961546Y-85559150D01*
X117904419Y-85734969D01*
X117875500Y-85917559D01*
X117875500Y-86102440D01*
X117904419Y-86285030D01*
X117961546Y-86460849D01*
X117961547Y-86460852D01*
X118045479Y-86625575D01*
X118154135Y-86775129D01*
X118154139Y-86775134D01*
X118284865Y-86905860D01*
X118284870Y-86905864D01*
X118389734Y-86982051D01*
X118434428Y-87014523D01*
X118542106Y-87069388D01*
X118599147Y-87098452D01*
X118599150Y-87098453D01*
X118774969Y-87155580D01*
X118957560Y-87184500D01*
X118957565Y-87184500D01*
X119142440Y-87184500D01*
X119325030Y-87155580D01*
X119500849Y-87098453D01*
X119500852Y-87098452D01*
X119511574Y-87092989D01*
X119665572Y-87014523D01*
X119815136Y-86905859D01*
X119945859Y-86775136D01*
X120054523Y-86625572D01*
X120138452Y-86460852D01*
X120195580Y-86285029D01*
X120224500Y-86102440D01*
X120224500Y-85917559D01*
X120195580Y-85734969D01*
X120138453Y-85559150D01*
X120138452Y-85559147D01*
X120093026Y-85469995D01*
X120054523Y-85394428D01*
X120040639Y-85375318D01*
X119945864Y-85244870D01*
X119945860Y-85244865D01*
X119815134Y-85114139D01*
X119815129Y-85114135D01*
X119665575Y-85005479D01*
X119665574Y-85005478D01*
X119665572Y-85005477D01*
X119612799Y-84978588D01*
X119500852Y-84921547D01*
X119500849Y-84921546D01*
X119325030Y-84864420D01*
X119312737Y-84862473D01*
X119249602Y-84832544D01*
X119212671Y-84773232D01*
X119213669Y-84703370D01*
X119252279Y-84645137D01*
X119312737Y-84617527D01*
X119314508Y-84617246D01*
X119325029Y-84615580D01*
X119500852Y-84558452D01*
X119665572Y-84474523D01*
X119815136Y-84365859D01*
X119945859Y-84235136D01*
X120054523Y-84085572D01*
X120138452Y-83920852D01*
X120195580Y-83745029D01*
X120224500Y-83562440D01*
X120224500Y-83377559D01*
X120195580Y-83194969D01*
X120138453Y-83019150D01*
X120138452Y-83019147D01*
X120093026Y-82929995D01*
X120054523Y-82854428D01*
X120040634Y-82835311D01*
X119945864Y-82704870D01*
X119945860Y-82704865D01*
X119815134Y-82574139D01*
X119815129Y-82574135D01*
X119665575Y-82465479D01*
X119665574Y-82465478D01*
X119665572Y-82465477D01*
X119612799Y-82438588D01*
X119500852Y-82381547D01*
X119500849Y-82381546D01*
X119325030Y-82324420D01*
X119312737Y-82322473D01*
X119249602Y-82292544D01*
X119212671Y-82233232D01*
X119213669Y-82163370D01*
X119252279Y-82105137D01*
X119312737Y-82077527D01*
X119314508Y-82077246D01*
X119325029Y-82075580D01*
X119500852Y-82018452D01*
X119665572Y-81934523D01*
X119815136Y-81825859D01*
X119945859Y-81695136D01*
X120054523Y-81545572D01*
X120138452Y-81380852D01*
X120195580Y-81205029D01*
X120224500Y-81022440D01*
X120224500Y-80837559D01*
X120195580Y-80654969D01*
X120138453Y-80479150D01*
X120138452Y-80479147D01*
X120093026Y-80389995D01*
X120054523Y-80314428D01*
X120040634Y-80295311D01*
X119945864Y-80164870D01*
X119945860Y-80164865D01*
X119815134Y-80034139D01*
X119815129Y-80034135D01*
X119665575Y-79925479D01*
X119665574Y-79925478D01*
X119665572Y-79925477D01*
X119612799Y-79898588D01*
X119500852Y-79841547D01*
X119500849Y-79841546D01*
X119325030Y-79784420D01*
X119312737Y-79782473D01*
X119249602Y-79752544D01*
X119212671Y-79693232D01*
X119213669Y-79623370D01*
X119252279Y-79565137D01*
X119312737Y-79537527D01*
X119314508Y-79537246D01*
X119325029Y-79535580D01*
X119500852Y-79478452D01*
X119665572Y-79394523D01*
X119815136Y-79285859D01*
X119945859Y-79155136D01*
X120054523Y-79005572D01*
X120138452Y-78840852D01*
X120189120Y-78684911D01*
X120219368Y-78635550D01*
X125097139Y-73757782D01*
X125206632Y-73593914D01*
X125277750Y-73422219D01*
X125282051Y-73411836D01*
X125320500Y-73218541D01*
X125320500Y-73021460D01*
X125320500Y-58475781D01*
X125340185Y-58408742D01*
X125356815Y-58388104D01*
X125787819Y-57957099D01*
X125849142Y-57923615D01*
X125918834Y-57928599D01*
X125974767Y-57970471D01*
X125999184Y-58035935D01*
X125999500Y-58044781D01*
X125999500Y-63578541D01*
X125999500Y-63578543D01*
X125999499Y-63578543D01*
X126037947Y-63771829D01*
X126037950Y-63771839D01*
X126113364Y-63953907D01*
X126113371Y-63953920D01*
X126222860Y-64117781D01*
X126222863Y-64117785D01*
X126366537Y-64261459D01*
X126366559Y-64261479D01*
X132787398Y-70682318D01*
X132820883Y-70743641D01*
X132815899Y-70813333D01*
X132787398Y-70857680D01*
X130621899Y-73023181D01*
X130560576Y-73056666D01*
X130534218Y-73059500D01*
X128375762Y-73059500D01*
X128308723Y-73039815D01*
X128302877Y-73035818D01*
X128301708Y-73034969D01*
X128181610Y-72947713D01*
X128088917Y-72900483D01*
X128038123Y-72852511D01*
X128021328Y-72784690D01*
X128043865Y-72718555D01*
X128088917Y-72679516D01*
X128181610Y-72632287D01*
X128281773Y-72559515D01*
X128347213Y-72511971D01*
X128347215Y-72511968D01*
X128347219Y-72511966D01*
X128491966Y-72367219D01*
X128491968Y-72367215D01*
X128491971Y-72367213D01*
X128597134Y-72222466D01*
X128612287Y-72201610D01*
X128705220Y-72019219D01*
X128768477Y-71824534D01*
X128800500Y-71622352D01*
X128800500Y-71417648D01*
X128768477Y-71215466D01*
X128705220Y-71020781D01*
X128705218Y-71020778D01*
X128705218Y-71020776D01*
X128671503Y-70954607D01*
X128612287Y-70838390D01*
X128594082Y-70813333D01*
X128491971Y-70672786D01*
X128347213Y-70528028D01*
X128181613Y-70407715D01*
X128181612Y-70407714D01*
X128181610Y-70407713D01*
X128124653Y-70378691D01*
X127999223Y-70314781D01*
X127804534Y-70251522D01*
X127629995Y-70223878D01*
X127602352Y-70219500D01*
X127397648Y-70219500D01*
X127373329Y-70223351D01*
X127195465Y-70251522D01*
X127000776Y-70314781D01*
X126818386Y-70407715D01*
X126652786Y-70528028D01*
X126508028Y-70672786D01*
X126387715Y-70838386D01*
X126294781Y-71020776D01*
X126231522Y-71215465D01*
X126206428Y-71373907D01*
X126199500Y-71417648D01*
X126199500Y-71622352D01*
X126200620Y-71629423D01*
X126231522Y-71824534D01*
X126294781Y-72019223D01*
X126331133Y-72090566D01*
X126368028Y-72162977D01*
X126387715Y-72201613D01*
X126508028Y-72367213D01*
X126652786Y-72511971D01*
X126771960Y-72598554D01*
X126818390Y-72632287D01*
X126909840Y-72678883D01*
X126911080Y-72679515D01*
X126961876Y-72727490D01*
X126978671Y-72795311D01*
X126956134Y-72861446D01*
X126911080Y-72900485D01*
X126818386Y-72947715D01*
X126652786Y-73068028D01*
X126508028Y-73212786D01*
X126387715Y-73378386D01*
X126294781Y-73560776D01*
X126231522Y-73755465D01*
X126199500Y-73957648D01*
X126199500Y-74162351D01*
X126231522Y-74364534D01*
X126294781Y-74559223D01*
X126387715Y-74741613D01*
X126508028Y-74907213D01*
X126652786Y-75051971D01*
X126771960Y-75138554D01*
X126818390Y-75172287D01*
X126907125Y-75217500D01*
X126911080Y-75219515D01*
X126961876Y-75267490D01*
X126978671Y-75335311D01*
X126956134Y-75401446D01*
X126911080Y-75440485D01*
X126818386Y-75487715D01*
X126652786Y-75608028D01*
X126508028Y-75752786D01*
X126387715Y-75918386D01*
X126294781Y-76100776D01*
X126231522Y-76295465D01*
X126199500Y-76497648D01*
X126199500Y-76702351D01*
X126231522Y-76904534D01*
X126294781Y-77099223D01*
X126346682Y-77201082D01*
X126365381Y-77237782D01*
X126387715Y-77281613D01*
X126508028Y-77447213D01*
X126652786Y-77591971D01*
X126804248Y-77702012D01*
X126818390Y-77712287D01*
X126886426Y-77746953D01*
X126911080Y-77759515D01*
X126961876Y-77807490D01*
X126978671Y-77875311D01*
X126956134Y-77941446D01*
X126911080Y-77980485D01*
X126818386Y-78027715D01*
X126652786Y-78148028D01*
X126508028Y-78292786D01*
X126387715Y-78458386D01*
X126294781Y-78640776D01*
X126231522Y-78835465D01*
X126199500Y-79037648D01*
X126199500Y-79242351D01*
X126231522Y-79444534D01*
X126294781Y-79639223D01*
X126352522Y-79752544D01*
X126365381Y-79777782D01*
X126387715Y-79821613D01*
X126508028Y-79987213D01*
X126652786Y-80131971D01*
X126807749Y-80244556D01*
X126818390Y-80252287D01*
X126902829Y-80295311D01*
X126911080Y-80299515D01*
X126961876Y-80347490D01*
X126978671Y-80415311D01*
X126956134Y-80481446D01*
X126911080Y-80520485D01*
X126818386Y-80567715D01*
X126652786Y-80688028D01*
X126508028Y-80832786D01*
X126387715Y-80998386D01*
X126294781Y-81180776D01*
X126231522Y-81375465D01*
X126199500Y-81577648D01*
X126199500Y-81782351D01*
X126231522Y-81984534D01*
X126294781Y-82179223D01*
X126387715Y-82361613D01*
X126508028Y-82527213D01*
X126652786Y-82671971D01*
X126807749Y-82784556D01*
X126818390Y-82792287D01*
X126902829Y-82835311D01*
X126911080Y-82839515D01*
X126961876Y-82887490D01*
X126978671Y-82955311D01*
X126956134Y-83021446D01*
X126911080Y-83060485D01*
X126818386Y-83107715D01*
X126652786Y-83228028D01*
X126508028Y-83372786D01*
X126387715Y-83538386D01*
X126294781Y-83720776D01*
X126231522Y-83915465D01*
X126199500Y-84117648D01*
X126199500Y-84322351D01*
X126231522Y-84524534D01*
X126294781Y-84719223D01*
X126387715Y-84901613D01*
X126508028Y-85067213D01*
X126652786Y-85211971D01*
X126732665Y-85270005D01*
X126818390Y-85332287D01*
X126917337Y-85382703D01*
X127000776Y-85425218D01*
X127000778Y-85425218D01*
X127000781Y-85425220D01*
X127105137Y-85459127D01*
X127195465Y-85488477D01*
X127296557Y-85504488D01*
X127397648Y-85520500D01*
X127397649Y-85520500D01*
X127602351Y-85520500D01*
X127602352Y-85520500D01*
X127804534Y-85488477D01*
X127999219Y-85425220D01*
X128181610Y-85332287D01*
X128301937Y-85244865D01*
X128347213Y-85211971D01*
X128347215Y-85211968D01*
X128347219Y-85211966D01*
X128491966Y-85067219D01*
X128491968Y-85067215D01*
X128491971Y-85067213D01*
X128553023Y-84983181D01*
X128612287Y-84901610D01*
X128705220Y-84719219D01*
X128768477Y-84524534D01*
X128800500Y-84322352D01*
X128800500Y-84117648D01*
X128768477Y-83915466D01*
X128762737Y-83897801D01*
X128713099Y-83745030D01*
X128705220Y-83720781D01*
X128705218Y-83720778D01*
X128705218Y-83720776D01*
X128651509Y-83615368D01*
X128612287Y-83538390D01*
X128604556Y-83527749D01*
X128491971Y-83372786D01*
X128347213Y-83228028D01*
X128181614Y-83107715D01*
X128175006Y-83104348D01*
X128088917Y-83060483D01*
X128038123Y-83012511D01*
X128021328Y-82944690D01*
X128043865Y-82878555D01*
X128088917Y-82839516D01*
X128181610Y-82792287D01*
X128202770Y-82776913D01*
X128347213Y-82671971D01*
X128347215Y-82671968D01*
X128347219Y-82671966D01*
X128491966Y-82527219D01*
X128491968Y-82527215D01*
X128491971Y-82527213D01*
X128597134Y-82382466D01*
X128612287Y-82361610D01*
X128705220Y-82179219D01*
X128768477Y-81984534D01*
X128800500Y-81782352D01*
X128800500Y-81577648D01*
X128768477Y-81375466D01*
X128705220Y-81180781D01*
X128705218Y-81180778D01*
X128705218Y-81180776D01*
X128651509Y-81075368D01*
X128612287Y-80998390D01*
X128604556Y-80987749D01*
X128491971Y-80832786D01*
X128347213Y-80688028D01*
X128181614Y-80567715D01*
X128175006Y-80564348D01*
X128088917Y-80520483D01*
X128038123Y-80472511D01*
X128021328Y-80404690D01*
X128043865Y-80338555D01*
X128088917Y-80299516D01*
X128181610Y-80252287D01*
X128202770Y-80236913D01*
X128347213Y-80131971D01*
X128347215Y-80131968D01*
X128347219Y-80131966D01*
X128491966Y-79987219D01*
X128491968Y-79987215D01*
X128491971Y-79987213D01*
X128597134Y-79842466D01*
X128612287Y-79821610D01*
X128705220Y-79639219D01*
X128768477Y-79444534D01*
X128800500Y-79242352D01*
X128800500Y-79037648D01*
X128768477Y-78835466D01*
X128705220Y-78640781D01*
X128705218Y-78640778D01*
X128705218Y-78640776D01*
X128651509Y-78535368D01*
X128612287Y-78458390D01*
X128604556Y-78447749D01*
X128491971Y-78292786D01*
X128347213Y-78148028D01*
X128181614Y-78027715D01*
X128175006Y-78024348D01*
X128088917Y-77980483D01*
X128038123Y-77932511D01*
X128021328Y-77864690D01*
X128043865Y-77798555D01*
X128088917Y-77759516D01*
X128181610Y-77712287D01*
X128202770Y-77696913D01*
X128347213Y-77591971D01*
X128347215Y-77591968D01*
X128347219Y-77591966D01*
X128491966Y-77447219D01*
X128491968Y-77447215D01*
X128491971Y-77447213D01*
X128597134Y-77302466D01*
X128612287Y-77281610D01*
X128705220Y-77099219D01*
X128768477Y-76904534D01*
X128800500Y-76702352D01*
X128800500Y-76497648D01*
X128768477Y-76295466D01*
X128705220Y-76100781D01*
X128705218Y-76100778D01*
X128705218Y-76100776D01*
X128651509Y-75995368D01*
X128612287Y-75918390D01*
X128604556Y-75907749D01*
X128491971Y-75752786D01*
X128347213Y-75608028D01*
X128181614Y-75487715D01*
X128152196Y-75472726D01*
X128088917Y-75440483D01*
X128038123Y-75392511D01*
X128021328Y-75324690D01*
X128043865Y-75258555D01*
X128088917Y-75219516D01*
X128181610Y-75172287D01*
X128302877Y-75084181D01*
X128368683Y-75060702D01*
X128375762Y-75060500D01*
X129875500Y-75060500D01*
X129942539Y-75080185D01*
X129988294Y-75132989D01*
X129999500Y-75184500D01*
X129999500Y-89598541D01*
X129999500Y-89598543D01*
X129999499Y-89598543D01*
X130037947Y-89791829D01*
X130037950Y-89791839D01*
X130113364Y-89973907D01*
X130113371Y-89973920D01*
X130222859Y-90137780D01*
X130222860Y-90137781D01*
X130222861Y-90137782D01*
X130362218Y-90277139D01*
X130362219Y-90277139D01*
X130369286Y-90284206D01*
X130369285Y-90284206D01*
X130369289Y-90284209D01*
X131362215Y-91277137D01*
X131362219Y-91277140D01*
X131526079Y-91386628D01*
X131526085Y-91386631D01*
X131526086Y-91386632D01*
X131708165Y-91462052D01*
X131901455Y-91500500D01*
X131901458Y-91500501D01*
X131901460Y-91500501D01*
X132104655Y-91500501D01*
X132104675Y-91500500D01*
X145598542Y-91500500D01*
X145629566Y-91494328D01*
X145695188Y-91481275D01*
X145791836Y-91462051D01*
X145845165Y-91439961D01*
X145973914Y-91386632D01*
X146137782Y-91277139D01*
X146277139Y-91137782D01*
X146277139Y-91137780D01*
X146287347Y-91127573D01*
X146287348Y-91127570D01*
X146789660Y-90625258D01*
X148329500Y-90625258D01*
X148329500Y-90854741D01*
X148354446Y-91044215D01*
X148359452Y-91082238D01*
X148374334Y-91137779D01*
X148418842Y-91303887D01*
X148506650Y-91515876D01*
X148506657Y-91515890D01*
X148621392Y-91714617D01*
X148761081Y-91896661D01*
X148761089Y-91896670D01*
X148923330Y-92058911D01*
X148923338Y-92058918D01*
X149105382Y-92198607D01*
X149105385Y-92198608D01*
X149105388Y-92198611D01*
X149304112Y-92313344D01*
X149304117Y-92313346D01*
X149304123Y-92313349D01*
X149395480Y-92351190D01*
X149516113Y-92401158D01*
X149737762Y-92460548D01*
X149965266Y-92490500D01*
X149965273Y-92490500D01*
X150194727Y-92490500D01*
X150194734Y-92490500D01*
X150422238Y-92460548D01*
X150643887Y-92401158D01*
X150855888Y-92313344D01*
X151054612Y-92198611D01*
X151236661Y-92058919D01*
X151236665Y-92058914D01*
X151236670Y-92058911D01*
X151398911Y-91896670D01*
X151398914Y-91896665D01*
X151398919Y-91896661D01*
X151538611Y-91714612D01*
X151653344Y-91515888D01*
X151741158Y-91303887D01*
X151800548Y-91082238D01*
X151830500Y-90854734D01*
X151830500Y-90625266D01*
X151800548Y-90397762D01*
X151741158Y-90176113D01*
X151657407Y-89973920D01*
X151653349Y-89964123D01*
X151653346Y-89964117D01*
X151653344Y-89964112D01*
X151538611Y-89765388D01*
X151538608Y-89765385D01*
X151538607Y-89765382D01*
X151437764Y-89633962D01*
X151398919Y-89583339D01*
X151398918Y-89583338D01*
X151398911Y-89583330D01*
X151236670Y-89421089D01*
X151236661Y-89421081D01*
X151054617Y-89281392D01*
X150855890Y-89166657D01*
X150855876Y-89166650D01*
X150643887Y-89078842D01*
X150422238Y-89019452D01*
X150384215Y-89014446D01*
X150194741Y-88989500D01*
X150194734Y-88989500D01*
X149965266Y-88989500D01*
X149965258Y-88989500D01*
X149748715Y-89018009D01*
X149737762Y-89019452D01*
X149682658Y-89034217D01*
X149516112Y-89078842D01*
X149304123Y-89166650D01*
X149304109Y-89166657D01*
X149105382Y-89281392D01*
X148923338Y-89421081D01*
X148761081Y-89583338D01*
X148621392Y-89765382D01*
X148506657Y-89964109D01*
X148506650Y-89964123D01*
X148418842Y-90176112D01*
X148359453Y-90397759D01*
X148359451Y-90397770D01*
X148329500Y-90625258D01*
X146789660Y-90625258D01*
X149476101Y-87938819D01*
X149537424Y-87905334D01*
X149563782Y-87902500D01*
X149759360Y-87902500D01*
X149759361Y-87902500D01*
X149955636Y-87871413D01*
X150144632Y-87810005D01*
X150321694Y-87719787D01*
X150482464Y-87602981D01*
X150622981Y-87462464D01*
X150739787Y-87301694D01*
X150830005Y-87124632D01*
X150891413Y-86935636D01*
X150922500Y-86739361D01*
X150922500Y-86540639D01*
X150891413Y-86344364D01*
X150830005Y-86155368D01*
X150830005Y-86155367D01*
X150739786Y-85978305D01*
X150695656Y-85917565D01*
X150622981Y-85817536D01*
X150482464Y-85677019D01*
X150321694Y-85560213D01*
X150165218Y-85480484D01*
X150114423Y-85432510D01*
X150097628Y-85364689D01*
X150120165Y-85298554D01*
X150165218Y-85259515D01*
X150321694Y-85179787D01*
X150482464Y-85062981D01*
X150622981Y-84922464D01*
X150739787Y-84761694D01*
X150830005Y-84584632D01*
X150891413Y-84395636D01*
X150922500Y-84199361D01*
X150922500Y-84000639D01*
X150891413Y-83804364D01*
X150830005Y-83615368D01*
X150830005Y-83615367D01*
X150739786Y-83438305D01*
X150704331Y-83389505D01*
X150622981Y-83277536D01*
X150482464Y-83137019D01*
X150321694Y-83020213D01*
X150165218Y-82940484D01*
X150114423Y-82892510D01*
X150097628Y-82824689D01*
X150120165Y-82758554D01*
X150165218Y-82719515D01*
X150321694Y-82639787D01*
X150482464Y-82522981D01*
X150622981Y-82382464D01*
X150739787Y-82221694D01*
X150830005Y-82044632D01*
X150891413Y-81855636D01*
X150922500Y-81659361D01*
X150922500Y-81460639D01*
X150891413Y-81264364D01*
X150830005Y-81075368D01*
X150830005Y-81075367D01*
X150739786Y-80898305D01*
X150695656Y-80837565D01*
X150622981Y-80737536D01*
X150482464Y-80597019D01*
X150321694Y-80480213D01*
X150165218Y-80400484D01*
X150114423Y-80352510D01*
X150097628Y-80284689D01*
X150120165Y-80218554D01*
X150165218Y-80179515D01*
X150321694Y-80099787D01*
X150482464Y-79982981D01*
X150622981Y-79842464D01*
X150739787Y-79681694D01*
X150830005Y-79504632D01*
X150891413Y-79315636D01*
X150922500Y-79119361D01*
X150922500Y-78920639D01*
X150891413Y-78724364D01*
X150830005Y-78535368D01*
X150830005Y-78535367D01*
X150739786Y-78358305D01*
X150695656Y-78297565D01*
X150622981Y-78197536D01*
X150482464Y-78057019D01*
X150321694Y-77940213D01*
X150165218Y-77860484D01*
X150114423Y-77812510D01*
X150097628Y-77744689D01*
X150120165Y-77678554D01*
X150165218Y-77639515D01*
X150321694Y-77559787D01*
X150482464Y-77442981D01*
X150622981Y-77302464D01*
X150739787Y-77141694D01*
X150830005Y-76964632D01*
X150891413Y-76775636D01*
X150922500Y-76579361D01*
X150922500Y-76380639D01*
X150891413Y-76184364D01*
X150830005Y-75995368D01*
X150830005Y-75995367D01*
X150739786Y-75818305D01*
X150695656Y-75757565D01*
X150622981Y-75657536D01*
X150482464Y-75517019D01*
X150321694Y-75400213D01*
X150165218Y-75320484D01*
X150114423Y-75272510D01*
X150097628Y-75204689D01*
X150120165Y-75138554D01*
X150165218Y-75099515D01*
X150321694Y-75019787D01*
X150482464Y-74902981D01*
X150622981Y-74762464D01*
X150739787Y-74601694D01*
X150830005Y-74424632D01*
X150891413Y-74235636D01*
X150922500Y-74039361D01*
X150922500Y-73840639D01*
X150891413Y-73644364D01*
X150830005Y-73455368D01*
X150830005Y-73455367D01*
X150739786Y-73278305D01*
X150696368Y-73218545D01*
X150622981Y-73117536D01*
X150482464Y-72977019D01*
X150321694Y-72860213D01*
X150165218Y-72780484D01*
X150114423Y-72732510D01*
X150097628Y-72664689D01*
X150120165Y-72598554D01*
X150165218Y-72559515D01*
X150321694Y-72479787D01*
X150482464Y-72362981D01*
X150622981Y-72222464D01*
X150739787Y-72061694D01*
X150830005Y-71884632D01*
X150891413Y-71695636D01*
X150906212Y-71602194D01*
X150936139Y-71539064D01*
X150940985Y-71533933D01*
X152199139Y-70275782D01*
X152236745Y-70219500D01*
X152308632Y-70111914D01*
X152384051Y-69929835D01*
X152392995Y-69884874D01*
X152420493Y-69746631D01*
X152422500Y-69736541D01*
X152422500Y-68031614D01*
X152422500Y-68031611D01*
X152384052Y-67838325D01*
X152384051Y-67838324D01*
X152384051Y-67838320D01*
X152359542Y-67779150D01*
X152308635Y-67656247D01*
X152308628Y-67656234D01*
X152199139Y-67492373D01*
X152199136Y-67492369D01*
X152056686Y-67349919D01*
X152056655Y-67349890D01*
X145632023Y-60925258D01*
X148329500Y-60925258D01*
X148329500Y-61154741D01*
X148348214Y-61296879D01*
X148359452Y-61382238D01*
X148378022Y-61451543D01*
X148418842Y-61603887D01*
X148506650Y-61815876D01*
X148506657Y-61815890D01*
X148621392Y-62014617D01*
X148761081Y-62196661D01*
X148761089Y-62196670D01*
X148923330Y-62358911D01*
X148923338Y-62358918D01*
X149105382Y-62498607D01*
X149105385Y-62498608D01*
X149105388Y-62498611D01*
X149304112Y-62613344D01*
X149304117Y-62613346D01*
X149304123Y-62613349D01*
X149395480Y-62651190D01*
X149516113Y-62701158D01*
X149737762Y-62760548D01*
X149965266Y-62790500D01*
X149965273Y-62790500D01*
X150194727Y-62790500D01*
X150194734Y-62790500D01*
X150422238Y-62760548D01*
X150643887Y-62701158D01*
X150855888Y-62613344D01*
X151054612Y-62498611D01*
X151236661Y-62358919D01*
X151236665Y-62358914D01*
X151236670Y-62358911D01*
X151398911Y-62196670D01*
X151398914Y-62196665D01*
X151398919Y-62196661D01*
X151538611Y-62014612D01*
X151653344Y-61815888D01*
X151741158Y-61603887D01*
X151800548Y-61382238D01*
X151830500Y-61154734D01*
X151830500Y-60925266D01*
X151800548Y-60697762D01*
X151741158Y-60476113D01*
X151653344Y-60264112D01*
X151538611Y-60065388D01*
X151538608Y-60065385D01*
X151538607Y-60065382D01*
X151398918Y-59883338D01*
X151398911Y-59883330D01*
X151236670Y-59721089D01*
X151236661Y-59721081D01*
X151054617Y-59581392D01*
X150855890Y-59466657D01*
X150855876Y-59466650D01*
X150643887Y-59378842D01*
X150640554Y-59377949D01*
X150422238Y-59319452D01*
X150384215Y-59314446D01*
X150194741Y-59289500D01*
X150194734Y-59289500D01*
X149965266Y-59289500D01*
X149965258Y-59289500D01*
X149765364Y-59315818D01*
X149737762Y-59319452D01*
X149662941Y-59339500D01*
X149516112Y-59378842D01*
X149304123Y-59466650D01*
X149304109Y-59466657D01*
X149105382Y-59581392D01*
X148923338Y-59721081D01*
X148761081Y-59883338D01*
X148621392Y-60065382D01*
X148506657Y-60264109D01*
X148506650Y-60264123D01*
X148418842Y-60476112D01*
X148359453Y-60697759D01*
X148359451Y-60697770D01*
X148329500Y-60925258D01*
X145632023Y-60925258D01*
X144413324Y-59706559D01*
X144413304Y-59706537D01*
X144269630Y-59562863D01*
X144269626Y-59562860D01*
X144105765Y-59453371D01*
X144105756Y-59453366D01*
X144033160Y-59423296D01*
X143977010Y-59400038D01*
X143923681Y-59377949D01*
X143923677Y-59377948D01*
X143923673Y-59377946D01*
X143827033Y-59358724D01*
X143730389Y-59339500D01*
X143730386Y-59339500D01*
X138937502Y-59339500D01*
X138870463Y-59319815D01*
X138864617Y-59315818D01*
X138797504Y-59267058D01*
X138797503Y-59267057D01*
X138797501Y-59267056D01*
X138621561Y-59177409D01*
X138621558Y-59177408D01*
X138433766Y-59116390D01*
X138351822Y-59103411D01*
X138288688Y-59073481D01*
X138283540Y-59068619D01*
X133584209Y-54369289D01*
X133584206Y-54369285D01*
X133584206Y-54369286D01*
X133577139Y-54362219D01*
X133577139Y-54362218D01*
X133437782Y-54222861D01*
X133437781Y-54222860D01*
X133437780Y-54222859D01*
X133273920Y-54113371D01*
X133273911Y-54113366D01*
X133201315Y-54083296D01*
X133145165Y-54060038D01*
X133091836Y-54037949D01*
X133091832Y-54037948D01*
X133091828Y-54037946D01*
X132995188Y-54018724D01*
X132898544Y-53999500D01*
X132898541Y-53999500D01*
X125110139Y-53999500D01*
X125110134Y-53999500D01*
X125078071Y-54005876D01*
X125078072Y-54005877D01*
X124916850Y-54037946D01*
X124916844Y-54037948D01*
X124734768Y-54113366D01*
X124734759Y-54113371D01*
X124570899Y-54222859D01*
X124570895Y-54222862D01*
X122182220Y-56611539D01*
X122182218Y-56611541D01*
X122112538Y-56681220D01*
X122042859Y-56750899D01*
X121933371Y-56914759D01*
X121933364Y-56914772D01*
X121857950Y-57096840D01*
X121857947Y-57096850D01*
X121819500Y-57290136D01*
X121819500Y-71614218D01*
X121799815Y-71681257D01*
X121783181Y-71701899D01*
X120401082Y-73083997D01*
X120339759Y-73117482D01*
X120270067Y-73112498D01*
X120214134Y-73070626D01*
X120195470Y-73034633D01*
X120138454Y-72859153D01*
X120138452Y-72859147D01*
X120093026Y-72769995D01*
X120054523Y-72694428D01*
X120040639Y-72675318D01*
X119945864Y-72544870D01*
X119945860Y-72544865D01*
X119815134Y-72414139D01*
X119815129Y-72414135D01*
X119665575Y-72305479D01*
X119665574Y-72305478D01*
X119665572Y-72305477D01*
X119602188Y-72273181D01*
X119500852Y-72221547D01*
X119500849Y-72221546D01*
X119325030Y-72164420D01*
X119312737Y-72162473D01*
X119249602Y-72132544D01*
X119212671Y-72073232D01*
X119213669Y-72003370D01*
X119252279Y-71945137D01*
X119312737Y-71917527D01*
X119314508Y-71917246D01*
X119325029Y-71915580D01*
X119500852Y-71858452D01*
X119665572Y-71774523D01*
X119815136Y-71665859D01*
X119945859Y-71535136D01*
X120054523Y-71385572D01*
X120138452Y-71220852D01*
X120195580Y-71045029D01*
X120195937Y-71042775D01*
X120224500Y-70862440D01*
X120224500Y-70677559D01*
X120195580Y-70494969D01*
X120138453Y-70319150D01*
X120138452Y-70319147D01*
X120087681Y-70219505D01*
X120054523Y-70154428D01*
X120023630Y-70111907D01*
X119945864Y-70004870D01*
X119945860Y-70004865D01*
X119815134Y-69874139D01*
X119815129Y-69874135D01*
X119665575Y-69765479D01*
X119665574Y-69765478D01*
X119665572Y-69765477D01*
X119608776Y-69736538D01*
X119500852Y-69681547D01*
X119500849Y-69681546D01*
X119325030Y-69624420D01*
X119312737Y-69622473D01*
X119249602Y-69592544D01*
X119212671Y-69533232D01*
X119213669Y-69463370D01*
X119252279Y-69405137D01*
X119312737Y-69377527D01*
X119314508Y-69377246D01*
X119325029Y-69375580D01*
X119500852Y-69318452D01*
X119665572Y-69234523D01*
X119815136Y-69125859D01*
X119945859Y-68995136D01*
X120054523Y-68845572D01*
X120138452Y-68680852D01*
X120195580Y-68505029D01*
X120224500Y-68322440D01*
X120224500Y-68137559D01*
X120195580Y-67954969D01*
X120138453Y-67779150D01*
X120138452Y-67779147D01*
X120109388Y-67722106D01*
X120054523Y-67614428D01*
X120040639Y-67595318D01*
X119945864Y-67464870D01*
X119945860Y-67464865D01*
X119815134Y-67334139D01*
X119815129Y-67334135D01*
X119665575Y-67225479D01*
X119665574Y-67225478D01*
X119665572Y-67225477D01*
X119612799Y-67198588D01*
X119500852Y-67141547D01*
X119500849Y-67141546D01*
X119325030Y-67084419D01*
X119142440Y-67055500D01*
X119142435Y-67055500D01*
X118957565Y-67055500D01*
X118957560Y-67055500D01*
X118774969Y-67084419D01*
X118599150Y-67141546D01*
X118599147Y-67141547D01*
X118434424Y-67225479D01*
X118284870Y-67334135D01*
X118284865Y-67334139D01*
X118154139Y-67464865D01*
X118154135Y-67464870D01*
X118045479Y-67614424D01*
X117961547Y-67779147D01*
X117961546Y-67779150D01*
X117904419Y-67954969D01*
X117875500Y-68137559D01*
X111802549Y-68137559D01*
X111802549Y-60925258D01*
X116829500Y-60925258D01*
X116829500Y-61154741D01*
X116848214Y-61296879D01*
X116859452Y-61382238D01*
X116878022Y-61451543D01*
X116918842Y-61603887D01*
X117006650Y-61815876D01*
X117006657Y-61815890D01*
X117121392Y-62014617D01*
X117261081Y-62196661D01*
X117261089Y-62196670D01*
X117423330Y-62358911D01*
X117423338Y-62358918D01*
X117605382Y-62498607D01*
X117605385Y-62498608D01*
X117605388Y-62498611D01*
X117804112Y-62613344D01*
X117804117Y-62613346D01*
X117804123Y-62613349D01*
X117895480Y-62651190D01*
X118016113Y-62701158D01*
X118237762Y-62760548D01*
X118465266Y-62790500D01*
X118465273Y-62790500D01*
X118694727Y-62790500D01*
X118694734Y-62790500D01*
X118922238Y-62760548D01*
X119143887Y-62701158D01*
X119355888Y-62613344D01*
X119554612Y-62498611D01*
X119736661Y-62358919D01*
X119736665Y-62358914D01*
X119736670Y-62358911D01*
X119898911Y-62196670D01*
X119898914Y-62196665D01*
X119898919Y-62196661D01*
X120038611Y-62014612D01*
X120153344Y-61815888D01*
X120241158Y-61603887D01*
X120300548Y-61382238D01*
X120330500Y-61154734D01*
X120330500Y-60925266D01*
X120300548Y-60697762D01*
X120241158Y-60476113D01*
X120153344Y-60264112D01*
X120038611Y-60065388D01*
X120038608Y-60065385D01*
X120038607Y-60065382D01*
X119898918Y-59883338D01*
X119898911Y-59883330D01*
X119736670Y-59721089D01*
X119736661Y-59721081D01*
X119554617Y-59581392D01*
X119355890Y-59466657D01*
X119355876Y-59466650D01*
X119143887Y-59378842D01*
X119140554Y-59377949D01*
X118922238Y-59319452D01*
X118884215Y-59314446D01*
X118694741Y-59289500D01*
X118694734Y-59289500D01*
X118465266Y-59289500D01*
X118465258Y-59289500D01*
X118265364Y-59315818D01*
X118237762Y-59319452D01*
X118162941Y-59339500D01*
X118016112Y-59378842D01*
X117804123Y-59466650D01*
X117804109Y-59466657D01*
X117605382Y-59581392D01*
X117423338Y-59721081D01*
X117261081Y-59883338D01*
X117121392Y-60065382D01*
X117006657Y-60264109D01*
X117006650Y-60264123D01*
X116918842Y-60476112D01*
X116859453Y-60697759D01*
X116859451Y-60697770D01*
X116829500Y-60925258D01*
X111802549Y-60925258D01*
X111802549Y-51624499D01*
X111822234Y-51557460D01*
X111875038Y-51511705D01*
X111926549Y-51500499D01*
X156855500Y-51500499D01*
X156922539Y-51520184D01*
G37*
%TD.AperFunction*%
%TA.AperFunction,NonConductor*%
G36*
X143195503Y-61349144D02*
G01*
X143225490Y-61355668D01*
X143230505Y-61359422D01*
X143233102Y-61360185D01*
X143253744Y-61376819D01*
X143254744Y-61377819D01*
X143288229Y-61439142D01*
X143283245Y-61508834D01*
X143241373Y-61564767D01*
X143175909Y-61589184D01*
X143167063Y-61589500D01*
X138936125Y-61589500D01*
X138869086Y-61569815D01*
X138823331Y-61517011D01*
X138813387Y-61447853D01*
X138842412Y-61384297D01*
X138863257Y-61365169D01*
X138864638Y-61364165D01*
X138930449Y-61340701D01*
X138937502Y-61340500D01*
X143166063Y-61340500D01*
X143195503Y-61349144D01*
G37*
%TD.AperFunction*%
%TA.AperFunction,NonConductor*%
G36*
X129407444Y-59020185D02*
G01*
X129453199Y-59072989D01*
X129463143Y-59142147D01*
X129434118Y-59205703D01*
X129414720Y-59223763D01*
X129410019Y-59227282D01*
X129408451Y-59228456D01*
X129322206Y-59343664D01*
X129322202Y-59343671D01*
X129271908Y-59478517D01*
X129265501Y-59538116D01*
X129265500Y-59538135D01*
X129265500Y-61141870D01*
X129265501Y-61141876D01*
X129271908Y-61201483D01*
X129322202Y-61336328D01*
X129322206Y-61336335D01*
X129391358Y-61428709D01*
X129408454Y-61451546D01*
X129469812Y-61497478D01*
X129511682Y-61553411D01*
X129519500Y-61596744D01*
X129519500Y-62768541D01*
X129519500Y-62768543D01*
X129519499Y-62768543D01*
X129557947Y-62961829D01*
X129557950Y-62961839D01*
X129633364Y-63143907D01*
X129633371Y-63143920D01*
X129742859Y-63307780D01*
X129742860Y-63307781D01*
X129742861Y-63307782D01*
X129882218Y-63447139D01*
X129882219Y-63447139D01*
X129889286Y-63454206D01*
X129889285Y-63454206D01*
X129889288Y-63454208D01*
X132212860Y-65777781D01*
X132212861Y-65777782D01*
X132352218Y-65917139D01*
X132352219Y-65917140D01*
X132516080Y-66026628D01*
X132516086Y-66026632D01*
X132622745Y-66070811D01*
X132698164Y-66102051D01*
X132891454Y-66140499D01*
X132891457Y-66140500D01*
X132891459Y-66140500D01*
X137042212Y-66140500D01*
X137109251Y-66160185D01*
X137155006Y-66212989D01*
X137163829Y-66240308D01*
X137197947Y-66411829D01*
X137197949Y-66411835D01*
X137260061Y-66561787D01*
X137269500Y-66609240D01*
X137269500Y-70998542D01*
X137278298Y-71042775D01*
X137278302Y-71042791D01*
X137278747Y-71045029D01*
X137307949Y-71191836D01*
X137317737Y-71215466D01*
X137321524Y-71224609D01*
X137321525Y-71224612D01*
X137383364Y-71373907D01*
X137383371Y-71373920D01*
X137492859Y-71537780D01*
X137492860Y-71537781D01*
X137492861Y-71537782D01*
X137523181Y-71568102D01*
X137537887Y-71595034D01*
X137554477Y-71620848D01*
X137555368Y-71627046D01*
X137556666Y-71629423D01*
X137559500Y-71655783D01*
X137559500Y-71774217D01*
X137539815Y-71841256D01*
X137523181Y-71861898D01*
X137111899Y-72273181D01*
X137050576Y-72306666D01*
X137024218Y-72309500D01*
X134943238Y-72309500D01*
X134886943Y-72295985D01*
X134740852Y-72221547D01*
X134740849Y-72221546D01*
X134565366Y-72164529D01*
X134563096Y-72162977D01*
X134560353Y-72162781D01*
X134534422Y-72143370D01*
X134507691Y-72125092D01*
X134506620Y-72122558D01*
X134504419Y-72120911D01*
X134493100Y-72090566D01*
X134480492Y-72060733D01*
X134480960Y-72058023D01*
X134480000Y-72055447D01*
X134486885Y-72023791D01*
X134492407Y-71991887D01*
X134494443Y-71989040D01*
X134494850Y-71987174D01*
X134516001Y-71958919D01*
X134535551Y-71939368D01*
X134584912Y-71909119D01*
X134740852Y-71858452D01*
X134905572Y-71774523D01*
X135055136Y-71665859D01*
X135185859Y-71535136D01*
X135294523Y-71385572D01*
X135378452Y-71220852D01*
X135435580Y-71045029D01*
X135435937Y-71042775D01*
X135464500Y-70862440D01*
X135464500Y-70677559D01*
X135435580Y-70494969D01*
X135378453Y-70319150D01*
X135378452Y-70319147D01*
X135327681Y-70219505D01*
X135294523Y-70154428D01*
X135263630Y-70111907D01*
X135185864Y-70004870D01*
X135185860Y-70004865D01*
X135055134Y-69874139D01*
X135055129Y-69874135D01*
X134905575Y-69765479D01*
X134905574Y-69765478D01*
X134905572Y-69765477D01*
X134848776Y-69736538D01*
X134740852Y-69681547D01*
X134740849Y-69681546D01*
X134584913Y-69630880D01*
X134573510Y-69623892D01*
X134563804Y-69621781D01*
X134535550Y-69600630D01*
X134516002Y-69581082D01*
X134482517Y-69519759D01*
X134487501Y-69450067D01*
X134529373Y-69394134D01*
X134565363Y-69375471D01*
X134740852Y-69318452D01*
X134905572Y-69234523D01*
X135055136Y-69125859D01*
X135185859Y-68995136D01*
X135294523Y-68845572D01*
X135378452Y-68680852D01*
X135435580Y-68505029D01*
X135464500Y-68322440D01*
X135464500Y-68137559D01*
X135435580Y-67954969D01*
X135378453Y-67779150D01*
X135378452Y-67779147D01*
X135349388Y-67722106D01*
X135294523Y-67614428D01*
X135280639Y-67595318D01*
X135185864Y-67464870D01*
X135185860Y-67464865D01*
X135055134Y-67334139D01*
X135055129Y-67334135D01*
X134905575Y-67225479D01*
X134905574Y-67225478D01*
X134905572Y-67225477D01*
X134852799Y-67198588D01*
X134740852Y-67141547D01*
X134740849Y-67141546D01*
X134565030Y-67084419D01*
X134382440Y-67055500D01*
X134382435Y-67055500D01*
X134197565Y-67055500D01*
X134197560Y-67055500D01*
X134014969Y-67084419D01*
X133839150Y-67141546D01*
X133839147Y-67141547D01*
X133674424Y-67225479D01*
X133524870Y-67334135D01*
X133524865Y-67334139D01*
X133394139Y-67464865D01*
X133394135Y-67464870D01*
X133285479Y-67614424D01*
X133201547Y-67779147D01*
X133201546Y-67779150D01*
X133144529Y-67954634D01*
X133105092Y-68012309D01*
X133040733Y-68039508D01*
X132971887Y-68027593D01*
X132938917Y-68003997D01*
X128036819Y-63101899D01*
X128003334Y-63040576D01*
X128000500Y-63014218D01*
X128000500Y-59124500D01*
X128020185Y-59057461D01*
X128072989Y-59011706D01*
X128124500Y-59000500D01*
X129340405Y-59000500D01*
X129407444Y-59020185D01*
G37*
%TD.AperFunction*%
%TA.AperFunction,NonConductor*%
G36*
X134401446Y-60782542D02*
G01*
X134440482Y-60827593D01*
X134490246Y-60925258D01*
X134527058Y-60997505D01*
X134643115Y-61157246D01*
X134782753Y-61296884D01*
X134894153Y-61377819D01*
X134942499Y-61412944D01*
X135118439Y-61502591D01*
X135306237Y-61563610D01*
X135388179Y-61576587D01*
X135451310Y-61606515D01*
X135456459Y-61611379D01*
X137212215Y-63367137D01*
X137212219Y-63367140D01*
X137376079Y-63476628D01*
X137376085Y-63476631D01*
X137376086Y-63476632D01*
X137558165Y-63552052D01*
X137751455Y-63590500D01*
X137751458Y-63590501D01*
X137751460Y-63590501D01*
X137954655Y-63590501D01*
X137954675Y-63590500D01*
X142924218Y-63590500D01*
X142991257Y-63610185D01*
X143011899Y-63626819D01*
X148157399Y-68772319D01*
X148190884Y-68833642D01*
X148185900Y-68903334D01*
X148157399Y-68947681D01*
X145687219Y-71417861D01*
X145032221Y-72072858D01*
X145032218Y-72072861D01*
X144984168Y-72120911D01*
X144892859Y-72212219D01*
X144783371Y-72376080D01*
X144783364Y-72376093D01*
X144763160Y-72424873D01*
X144709712Y-72553909D01*
X144709710Y-72553915D01*
X144707949Y-72558164D01*
X144707946Y-72558175D01*
X144669500Y-72751454D01*
X144669500Y-74335587D01*
X144649815Y-74402626D01*
X144633181Y-74423268D01*
X143581710Y-75474738D01*
X143520387Y-75508223D01*
X143450695Y-75503239D01*
X143436446Y-75496876D01*
X143428454Y-75492685D01*
X143421610Y-75487713D01*
X143328253Y-75440145D01*
X143327631Y-75439819D01*
X143303024Y-75416028D01*
X143278123Y-75392511D01*
X143277941Y-75391778D01*
X143277399Y-75391254D01*
X143269551Y-75357898D01*
X143261328Y-75324690D01*
X143261571Y-75323976D01*
X143261398Y-75323241D01*
X143272826Y-75290946D01*
X143283865Y-75258555D01*
X143284478Y-75258023D01*
X143284708Y-75257374D01*
X143289644Y-75253547D01*
X143328917Y-75219516D01*
X143421610Y-75172287D01*
X143472930Y-75135001D01*
X143587213Y-75051971D01*
X143587215Y-75051968D01*
X143587219Y-75051966D01*
X143731966Y-74907219D01*
X143731968Y-74907215D01*
X143731971Y-74907213D01*
X143837134Y-74762466D01*
X143852287Y-74741610D01*
X143945220Y-74559219D01*
X144008477Y-74364534D01*
X144040500Y-74162352D01*
X144040500Y-73957648D01*
X144008477Y-73755466D01*
X143945220Y-73560781D01*
X143945218Y-73560778D01*
X143945218Y-73560776D01*
X143891509Y-73455368D01*
X143852287Y-73378390D01*
X143838505Y-73359420D01*
X143731971Y-73212786D01*
X143587213Y-73068028D01*
X143421614Y-72947715D01*
X143415006Y-72944348D01*
X143328917Y-72900483D01*
X143278123Y-72852511D01*
X143261328Y-72784690D01*
X143283865Y-72718555D01*
X143328917Y-72679516D01*
X143421610Y-72632287D01*
X143521773Y-72559515D01*
X143587213Y-72511971D01*
X143587215Y-72511968D01*
X143587219Y-72511966D01*
X143731966Y-72367219D01*
X143731968Y-72367215D01*
X143731971Y-72367213D01*
X143837134Y-72222466D01*
X143852287Y-72201610D01*
X143945220Y-72019219D01*
X144008477Y-71824534D01*
X144040500Y-71622352D01*
X144040500Y-71417648D01*
X144008477Y-71215466D01*
X143945220Y-71020781D01*
X143945218Y-71020778D01*
X143945218Y-71020776D01*
X143911503Y-70954607D01*
X143852287Y-70838390D01*
X143834082Y-70813333D01*
X143731971Y-70672786D01*
X143587213Y-70528028D01*
X143421613Y-70407715D01*
X143421612Y-70407714D01*
X143421610Y-70407713D01*
X143364653Y-70378691D01*
X143239223Y-70314781D01*
X143044534Y-70251522D01*
X142869995Y-70223878D01*
X142842352Y-70219500D01*
X142637648Y-70219500D01*
X142613329Y-70223351D01*
X142435465Y-70251522D01*
X142240776Y-70314781D01*
X142058386Y-70407715D01*
X142004300Y-70447011D01*
X141938292Y-70494969D01*
X141937123Y-70495818D01*
X141871317Y-70519298D01*
X141864238Y-70519500D01*
X139394500Y-70519500D01*
X139327461Y-70499815D01*
X139281706Y-70447011D01*
X139270500Y-70395500D01*
X139270500Y-66131456D01*
X139232052Y-65938171D01*
X139232051Y-65938165D01*
X139169938Y-65788211D01*
X139160500Y-65740760D01*
X139160500Y-65611458D01*
X139160499Y-65611455D01*
X139128953Y-65452861D01*
X139122051Y-65418164D01*
X139090859Y-65342861D01*
X139046632Y-65236086D01*
X138937139Y-65072218D01*
X138797782Y-64932861D01*
X138797781Y-64932860D01*
X138374208Y-64509288D01*
X138374206Y-64509285D01*
X138374206Y-64509286D01*
X138367139Y-64502219D01*
X138367139Y-64502218D01*
X138227782Y-64362861D01*
X138227781Y-64362860D01*
X138227780Y-64362859D01*
X138063920Y-64253371D01*
X138063911Y-64253366D01*
X137991315Y-64223296D01*
X137935165Y-64200038D01*
X137881836Y-64177949D01*
X137881832Y-64177948D01*
X137881828Y-64177946D01*
X137785188Y-64158724D01*
X137688544Y-64139500D01*
X137688541Y-64139500D01*
X133455783Y-64139500D01*
X133388744Y-64119815D01*
X133368102Y-64103181D01*
X131556819Y-62291898D01*
X131523334Y-62230575D01*
X131520500Y-62204217D01*
X131520500Y-61596744D01*
X131540185Y-61529705D01*
X131570186Y-61497479D01*
X131631546Y-61451546D01*
X131717796Y-61336331D01*
X131768091Y-61201483D01*
X131774500Y-61141873D01*
X131774499Y-61086574D01*
X131794182Y-61019538D01*
X131846986Y-60973783D01*
X131916144Y-60963838D01*
X131979700Y-60992862D01*
X131998817Y-61013691D01*
X132103115Y-61157245D01*
X132103119Y-61157250D01*
X132242753Y-61296884D01*
X132354153Y-61377819D01*
X132402499Y-61412944D01*
X132578439Y-61502591D01*
X132661888Y-61529705D01*
X132766236Y-61563610D01*
X132961264Y-61594500D01*
X132961269Y-61594500D01*
X133158736Y-61594500D01*
X133353763Y-61563610D01*
X133385152Y-61553411D01*
X133541561Y-61502591D01*
X133717501Y-61412944D01*
X133816936Y-61340701D01*
X133877246Y-61296884D01*
X133877248Y-61296881D01*
X133877252Y-61296879D01*
X134016879Y-61157252D01*
X134016881Y-61157248D01*
X134016884Y-61157246D01*
X134132941Y-60997505D01*
X134132940Y-60997505D01*
X134132944Y-60997501D01*
X134219517Y-60827593D01*
X134267490Y-60776800D01*
X134335311Y-60760005D01*
X134401446Y-60782542D01*
G37*
%TD.AperFunction*%
%TA.AperFunction,NonConductor*%
G36*
X144203243Y-77561775D02*
G01*
X144232778Y-77561508D01*
X144237672Y-77564591D01*
X144243439Y-77565063D01*
X144266904Y-77583005D01*
X144291896Y-77598749D01*
X144294346Y-77603989D01*
X144298942Y-77607503D01*
X144308980Y-77635282D01*
X144321494Y-77662039D01*
X144320722Y-77667772D01*
X144322689Y-77673214D01*
X144316115Y-77702012D01*
X144312177Y-77731285D01*
X144308071Y-77737255D01*
X144307141Y-77741331D01*
X144301402Y-77746953D01*
X144286602Y-77768477D01*
X143951899Y-78103181D01*
X143924971Y-78117884D01*
X143899153Y-78134477D01*
X143892952Y-78135368D01*
X143890576Y-78136666D01*
X143864218Y-78139500D01*
X143615762Y-78139500D01*
X143548723Y-78119815D01*
X143542877Y-78115818D01*
X143541708Y-78114969D01*
X143421610Y-78027713D01*
X143328917Y-77980483D01*
X143278123Y-77932511D01*
X143261328Y-77864690D01*
X143283865Y-77798555D01*
X143328917Y-77759516D01*
X143421610Y-77712287D01*
X143542877Y-77624181D01*
X143608683Y-77600702D01*
X143615762Y-77600500D01*
X143969913Y-77600500D01*
X144029182Y-77588709D01*
X144101812Y-77574263D01*
X144163206Y-77562051D01*
X144165579Y-77561067D01*
X144173802Y-77559367D01*
X144203243Y-77561775D01*
G37*
%TD.AperFunction*%
%TA.AperFunction,NonConductor*%
G36*
X141931277Y-72540185D02*
G01*
X141937119Y-72544179D01*
X142058390Y-72632287D01*
X142149840Y-72678883D01*
X142151080Y-72679515D01*
X142201876Y-72727490D01*
X142218671Y-72795311D01*
X142196134Y-72861446D01*
X142151080Y-72900485D01*
X142058386Y-72947715D01*
X141892786Y-73068028D01*
X141748028Y-73212786D01*
X141627715Y-73378386D01*
X141534781Y-73560776D01*
X141471522Y-73755465D01*
X141439500Y-73957648D01*
X141439500Y-74162351D01*
X141471522Y-74364534D01*
X141534781Y-74559223D01*
X141627715Y-74741613D01*
X141748028Y-74907213D01*
X141892786Y-75051971D01*
X142011960Y-75138554D01*
X142058390Y-75172287D01*
X142147125Y-75217500D01*
X142151080Y-75219515D01*
X142201876Y-75267490D01*
X142218671Y-75335311D01*
X142196134Y-75401446D01*
X142151080Y-75440485D01*
X142058386Y-75487715D01*
X141892786Y-75608028D01*
X141748028Y-75752786D01*
X141627715Y-75918386D01*
X141534781Y-76100776D01*
X141471522Y-76295465D01*
X141439500Y-76497648D01*
X141439500Y-76702351D01*
X141471522Y-76904534D01*
X141534781Y-77099223D01*
X141586682Y-77201082D01*
X141605381Y-77237782D01*
X141627715Y-77281613D01*
X141748028Y-77447213D01*
X141892786Y-77591971D01*
X142044248Y-77702012D01*
X142058390Y-77712287D01*
X142126426Y-77746953D01*
X142151080Y-77759515D01*
X142201876Y-77807490D01*
X142218671Y-77875311D01*
X142196134Y-77941446D01*
X142151080Y-77980485D01*
X142058386Y-78027715D01*
X141892786Y-78148028D01*
X141748028Y-78292786D01*
X141627715Y-78458386D01*
X141534781Y-78640776D01*
X141471522Y-78835465D01*
X141439500Y-79037648D01*
X141439500Y-79242351D01*
X141471522Y-79444534D01*
X141534781Y-79639223D01*
X141592522Y-79752544D01*
X141605381Y-79777782D01*
X141627715Y-79821613D01*
X141748028Y-79987213D01*
X141892786Y-80131971D01*
X142047749Y-80244556D01*
X142058390Y-80252287D01*
X142142829Y-80295311D01*
X142151080Y-80299515D01*
X142201876Y-80347490D01*
X142218671Y-80415311D01*
X142196134Y-80481446D01*
X142151080Y-80520485D01*
X142058386Y-80567715D01*
X141892786Y-80688028D01*
X141748028Y-80832786D01*
X141627715Y-80998386D01*
X141534781Y-81180776D01*
X141471522Y-81375465D01*
X141439500Y-81577648D01*
X141439500Y-81782351D01*
X141471522Y-81984534D01*
X141534781Y-82179223D01*
X141627715Y-82361613D01*
X141748028Y-82527213D01*
X141892786Y-82671971D01*
X142047749Y-82784556D01*
X142058390Y-82792287D01*
X142142829Y-82835311D01*
X142151080Y-82839515D01*
X142201876Y-82887490D01*
X142218671Y-82955311D01*
X142196134Y-83021446D01*
X142151080Y-83060485D01*
X142058386Y-83107715D01*
X141892786Y-83228028D01*
X141748028Y-83372786D01*
X141627715Y-83538386D01*
X141534781Y-83720778D01*
X141493166Y-83848856D01*
X141453728Y-83906532D01*
X141389370Y-83933730D01*
X141320523Y-83921815D01*
X141287554Y-83898219D01*
X139926819Y-82537484D01*
X139893334Y-82476161D01*
X139890500Y-82449803D01*
X139890500Y-72644500D01*
X139910185Y-72577461D01*
X139962989Y-72531706D01*
X140014500Y-72520500D01*
X141864238Y-72520500D01*
X141931277Y-72540185D01*
G37*
%TD.AperFunction*%
%TA.AperFunction,NonConductor*%
G36*
X148320913Y-76641932D02*
G01*
X148343860Y-76643573D01*
X148353940Y-76651119D01*
X148366069Y-76654493D01*
X148381378Y-76671660D01*
X148399793Y-76685445D01*
X148405305Y-76698488D01*
X148412573Y-76706638D01*
X148422999Y-76740357D01*
X148428586Y-76775636D01*
X148489993Y-76964629D01*
X148489994Y-76964632D01*
X148577408Y-77136189D01*
X148580213Y-77141694D01*
X148697019Y-77302464D01*
X148837536Y-77442981D01*
X148998306Y-77559787D01*
X149078606Y-77600702D01*
X149154780Y-77639515D01*
X149205576Y-77687490D01*
X149222371Y-77755311D01*
X149199833Y-77821446D01*
X149154780Y-77860485D01*
X148998305Y-77940213D01*
X148837533Y-78057021D01*
X148697021Y-78197533D01*
X148580213Y-78358305D01*
X148489994Y-78535367D01*
X148489993Y-78535370D01*
X148428587Y-78724362D01*
X148397500Y-78920639D01*
X148397500Y-79119360D01*
X148428587Y-79315637D01*
X148489993Y-79504629D01*
X148489994Y-79504632D01*
X148550495Y-79623370D01*
X148580213Y-79681694D01*
X148697019Y-79842464D01*
X148837536Y-79982981D01*
X148998306Y-80099787D01*
X149078606Y-80140702D01*
X149154780Y-80179515D01*
X149205576Y-80227490D01*
X149222371Y-80295311D01*
X149199833Y-80361446D01*
X149154780Y-80400485D01*
X148998305Y-80480213D01*
X148837533Y-80597021D01*
X148697021Y-80737533D01*
X148580213Y-80898305D01*
X148489994Y-81075367D01*
X148489993Y-81075370D01*
X148428587Y-81264362D01*
X148397500Y-81460639D01*
X148397500Y-81659360D01*
X148428587Y-81855637D01*
X148489993Y-82044629D01*
X148489994Y-82044632D01*
X148550495Y-82163370D01*
X148580213Y-82221694D01*
X148697019Y-82382464D01*
X148837536Y-82522981D01*
X148998306Y-82639787D01*
X149116832Y-82700179D01*
X149154780Y-82719515D01*
X149205576Y-82767490D01*
X149222371Y-82835311D01*
X149199833Y-82901446D01*
X149154780Y-82940485D01*
X148998305Y-83020213D01*
X148837533Y-83137021D01*
X148697021Y-83277533D01*
X148580213Y-83438305D01*
X148489994Y-83615367D01*
X148489993Y-83615370D01*
X148428587Y-83804362D01*
X148413787Y-83897801D01*
X148383857Y-83960936D01*
X148378995Y-83966083D01*
X147361899Y-84983181D01*
X147300576Y-85016666D01*
X147274218Y-85019500D01*
X143994569Y-85019500D01*
X143927530Y-84999815D01*
X143881775Y-84947011D01*
X143871831Y-84877853D01*
X143884084Y-84839205D01*
X143945218Y-84719223D01*
X143945218Y-84719222D01*
X143945220Y-84719219D01*
X144008477Y-84524534D01*
X144040500Y-84322352D01*
X144040500Y-84117648D01*
X144008477Y-83915466D01*
X144002737Y-83897801D01*
X143953099Y-83745030D01*
X143945220Y-83720781D01*
X143945218Y-83720778D01*
X143945218Y-83720776D01*
X143891509Y-83615368D01*
X143852287Y-83538390D01*
X143844556Y-83527749D01*
X143731971Y-83372786D01*
X143587213Y-83228028D01*
X143421614Y-83107715D01*
X143415006Y-83104348D01*
X143328917Y-83060483D01*
X143278123Y-83012511D01*
X143261328Y-82944690D01*
X143283865Y-82878555D01*
X143328917Y-82839516D01*
X143421610Y-82792287D01*
X143442770Y-82776913D01*
X143587213Y-82671971D01*
X143587215Y-82671968D01*
X143587219Y-82671966D01*
X143731966Y-82527219D01*
X143731968Y-82527215D01*
X143731971Y-82527213D01*
X143837134Y-82382466D01*
X143852287Y-82361610D01*
X143945220Y-82179219D01*
X144008477Y-81984534D01*
X144040500Y-81782352D01*
X144040500Y-81577648D01*
X144008477Y-81375466D01*
X143945220Y-81180781D01*
X143945218Y-81180778D01*
X143945218Y-81180776D01*
X143891509Y-81075368D01*
X143852287Y-80998390D01*
X143844556Y-80987749D01*
X143731971Y-80832786D01*
X143587213Y-80688028D01*
X143421614Y-80567715D01*
X143415006Y-80564348D01*
X143328917Y-80520483D01*
X143278123Y-80472511D01*
X143261328Y-80404690D01*
X143283865Y-80338555D01*
X143328917Y-80299516D01*
X143421610Y-80252287D01*
X143542877Y-80164181D01*
X143608683Y-80140702D01*
X143615762Y-80140500D01*
X144428543Y-80140500D01*
X144461424Y-80133959D01*
X144560442Y-80114263D01*
X144621836Y-80102051D01*
X144675165Y-80079961D01*
X144803914Y-80026632D01*
X144967782Y-79917139D01*
X145107139Y-79777782D01*
X145107140Y-79777779D01*
X145114206Y-79770714D01*
X145114208Y-79770710D01*
X148212847Y-76672072D01*
X148223894Y-76666040D01*
X148232003Y-76656408D01*
X148253979Y-76649612D01*
X148274168Y-76638589D01*
X148286726Y-76639487D01*
X148298755Y-76635768D01*
X148320913Y-76641932D01*
G37*
%TD.AperFunction*%
%TA.AperFunction,NonConductor*%
G36*
X133069931Y-73507501D02*
G01*
X133125865Y-73549373D01*
X133144529Y-73585365D01*
X133201546Y-73760849D01*
X133201547Y-73760852D01*
X133285479Y-73925575D01*
X133394135Y-74075129D01*
X133394139Y-74075134D01*
X133524865Y-74205860D01*
X133524870Y-74205864D01*
X133635637Y-74286340D01*
X133674428Y-74314523D01*
X133772580Y-74364534D01*
X133839147Y-74398452D01*
X133839150Y-74398453D01*
X133915524Y-74423268D01*
X134014971Y-74455580D01*
X134025150Y-74457192D01*
X134027263Y-74457527D01*
X134090397Y-74487457D01*
X134127328Y-74546769D01*
X134126330Y-74616631D01*
X134087719Y-74674864D01*
X134027263Y-74702473D01*
X134014969Y-74704420D01*
X133839150Y-74761546D01*
X133839147Y-74761547D01*
X133674424Y-74845479D01*
X133524870Y-74954135D01*
X133524865Y-74954139D01*
X133394139Y-75084865D01*
X133394135Y-75084870D01*
X133285479Y-75234424D01*
X133201547Y-75399147D01*
X133201546Y-75399150D01*
X133144419Y-75574969D01*
X133115500Y-75757559D01*
X133115500Y-75942440D01*
X133144419Y-76125030D01*
X133201546Y-76300849D01*
X133201547Y-76300852D01*
X133285479Y-76465575D01*
X133394135Y-76615129D01*
X133394139Y-76615134D01*
X133524865Y-76745860D01*
X133524870Y-76745864D01*
X133565850Y-76775637D01*
X133674428Y-76854523D01*
X133772580Y-76904534D01*
X133839147Y-76938452D01*
X133839150Y-76938453D01*
X133919713Y-76964629D01*
X134014971Y-76995580D01*
X134025150Y-76997192D01*
X134027263Y-76997527D01*
X134090397Y-77027457D01*
X134127328Y-77086769D01*
X134126330Y-77156631D01*
X134087719Y-77214864D01*
X134027263Y-77242473D01*
X134014969Y-77244420D01*
X133839150Y-77301546D01*
X133839147Y-77301547D01*
X133674424Y-77385479D01*
X133524870Y-77494135D01*
X133524865Y-77494139D01*
X133394139Y-77624865D01*
X133394135Y-77624870D01*
X133285479Y-77774424D01*
X133201547Y-77939147D01*
X133201546Y-77939150D01*
X133144419Y-78114969D01*
X133115500Y-78297559D01*
X133115500Y-78482440D01*
X133144419Y-78665030D01*
X133201546Y-78840849D01*
X133201547Y-78840852D01*
X133285479Y-79005575D01*
X133394135Y-79155129D01*
X133394139Y-79155134D01*
X133524865Y-79285860D01*
X133524870Y-79285864D01*
X133565850Y-79315637D01*
X133674428Y-79394523D01*
X133772580Y-79444534D01*
X133839147Y-79478452D01*
X133839150Y-79478453D01*
X133919713Y-79504629D01*
X134014971Y-79535580D01*
X134025150Y-79537192D01*
X134027263Y-79537527D01*
X134090397Y-79567457D01*
X134127328Y-79626769D01*
X134126330Y-79696631D01*
X134087719Y-79754864D01*
X134027263Y-79782473D01*
X134014969Y-79784420D01*
X133839150Y-79841546D01*
X133839147Y-79841547D01*
X133674424Y-79925479D01*
X133524870Y-80034135D01*
X133524865Y-80034139D01*
X133394139Y-80164865D01*
X133394135Y-80164870D01*
X133285479Y-80314424D01*
X133201547Y-80479147D01*
X133201546Y-80479150D01*
X133144419Y-80654969D01*
X133115500Y-80837559D01*
X133115500Y-81022440D01*
X133144419Y-81205030D01*
X133201546Y-81380849D01*
X133201547Y-81380852D01*
X133285479Y-81545575D01*
X133394135Y-81695129D01*
X133394139Y-81695134D01*
X133524865Y-81825860D01*
X133524870Y-81825864D01*
X133565850Y-81855637D01*
X133674428Y-81934523D01*
X133772580Y-81984534D01*
X133839147Y-82018452D01*
X133839150Y-82018453D01*
X133919713Y-82044629D01*
X134014971Y-82075580D01*
X134025150Y-82077192D01*
X134027263Y-82077527D01*
X134090397Y-82107457D01*
X134127328Y-82166769D01*
X134126330Y-82236631D01*
X134087719Y-82294864D01*
X134027263Y-82322473D01*
X134014969Y-82324420D01*
X133839150Y-82381546D01*
X133839147Y-82381547D01*
X133674424Y-82465479D01*
X133524870Y-82574135D01*
X133524865Y-82574139D01*
X133394139Y-82704865D01*
X133394135Y-82704870D01*
X133285479Y-82854424D01*
X133201547Y-83019147D01*
X133201546Y-83019150D01*
X133144419Y-83194969D01*
X133115500Y-83377559D01*
X133115500Y-83562440D01*
X133144419Y-83745030D01*
X133201546Y-83920849D01*
X133201547Y-83920852D01*
X133285479Y-84085575D01*
X133394135Y-84235129D01*
X133394139Y-84235134D01*
X133524865Y-84365860D01*
X133524870Y-84365864D01*
X133565850Y-84395637D01*
X133674428Y-84474523D01*
X133772580Y-84524534D01*
X133839147Y-84558452D01*
X133839150Y-84558453D01*
X133919713Y-84584629D01*
X134014971Y-84615580D01*
X134025150Y-84617192D01*
X134027263Y-84617527D01*
X134090397Y-84647457D01*
X134127328Y-84706769D01*
X134126330Y-84776631D01*
X134087719Y-84834864D01*
X134027263Y-84862473D01*
X134014969Y-84864420D01*
X133839150Y-84921546D01*
X133839147Y-84921547D01*
X133674424Y-85005479D01*
X133524870Y-85114135D01*
X133524865Y-85114139D01*
X133394139Y-85244865D01*
X133394135Y-85244870D01*
X133285479Y-85394424D01*
X133201547Y-85559147D01*
X133201546Y-85559150D01*
X133144419Y-85734969D01*
X133115500Y-85917559D01*
X133115500Y-86102440D01*
X133144419Y-86285030D01*
X133201546Y-86460849D01*
X133201547Y-86460852D01*
X133285479Y-86625575D01*
X133394135Y-86775129D01*
X133394139Y-86775134D01*
X133524865Y-86905860D01*
X133524870Y-86905864D01*
X133629734Y-86982051D01*
X133674428Y-87014523D01*
X133782106Y-87069388D01*
X133839147Y-87098452D01*
X133839150Y-87098453D01*
X134014969Y-87155580D01*
X134197560Y-87184500D01*
X134197565Y-87184500D01*
X134382440Y-87184500D01*
X134565030Y-87155580D01*
X134740849Y-87098453D01*
X134740852Y-87098452D01*
X134751574Y-87092989D01*
X134905572Y-87014523D01*
X135055136Y-86905859D01*
X135185859Y-86775136D01*
X135294523Y-86625572D01*
X135378452Y-86460852D01*
X135435580Y-86285029D01*
X135464500Y-86102440D01*
X135464500Y-85917559D01*
X135435580Y-85734969D01*
X135378453Y-85559150D01*
X135378452Y-85559147D01*
X135333026Y-85469995D01*
X135294523Y-85394428D01*
X135280639Y-85375318D01*
X135185864Y-85244870D01*
X135185860Y-85244865D01*
X135055134Y-85114139D01*
X135055129Y-85114135D01*
X134905575Y-85005479D01*
X134905574Y-85005478D01*
X134905572Y-85005477D01*
X134852799Y-84978588D01*
X134740852Y-84921547D01*
X134740849Y-84921546D01*
X134565030Y-84864420D01*
X134552737Y-84862473D01*
X134489602Y-84832544D01*
X134452671Y-84773232D01*
X134453669Y-84703370D01*
X134492279Y-84645137D01*
X134552737Y-84617527D01*
X134554508Y-84617246D01*
X134565029Y-84615580D01*
X134740852Y-84558452D01*
X134905572Y-84474523D01*
X135055136Y-84365859D01*
X135185859Y-84235136D01*
X135294523Y-84085572D01*
X135378452Y-83920852D01*
X135435580Y-83745029D01*
X135464500Y-83562440D01*
X135464500Y-83377559D01*
X135435580Y-83194969D01*
X135378453Y-83019150D01*
X135378452Y-83019147D01*
X135333026Y-82929995D01*
X135294523Y-82854428D01*
X135280634Y-82835311D01*
X135185864Y-82704870D01*
X135185860Y-82704865D01*
X135055134Y-82574139D01*
X135055129Y-82574135D01*
X134905575Y-82465479D01*
X134905574Y-82465478D01*
X134905572Y-82465477D01*
X134852799Y-82438588D01*
X134740852Y-82381547D01*
X134740849Y-82381546D01*
X134565030Y-82324420D01*
X134552737Y-82322473D01*
X134489602Y-82292544D01*
X134452671Y-82233232D01*
X134453669Y-82163370D01*
X134492279Y-82105137D01*
X134552737Y-82077527D01*
X134554508Y-82077246D01*
X134565029Y-82075580D01*
X134740852Y-82018452D01*
X134905572Y-81934523D01*
X135055136Y-81825859D01*
X135185859Y-81695136D01*
X135294523Y-81545572D01*
X135378452Y-81380852D01*
X135435580Y-81205029D01*
X135464500Y-81022440D01*
X135464500Y-80837559D01*
X135435580Y-80654969D01*
X135378453Y-80479150D01*
X135378452Y-80479147D01*
X135333026Y-80389995D01*
X135294523Y-80314428D01*
X135280634Y-80295311D01*
X135185864Y-80164870D01*
X135185860Y-80164865D01*
X135055134Y-80034139D01*
X135055129Y-80034135D01*
X134905575Y-79925479D01*
X134905574Y-79925478D01*
X134905572Y-79925477D01*
X134852799Y-79898588D01*
X134740852Y-79841547D01*
X134740849Y-79841546D01*
X134565030Y-79784420D01*
X134552737Y-79782473D01*
X134489602Y-79752544D01*
X134452671Y-79693232D01*
X134453669Y-79623370D01*
X134492279Y-79565137D01*
X134552737Y-79537527D01*
X134554508Y-79537246D01*
X134565029Y-79535580D01*
X134740852Y-79478452D01*
X134905572Y-79394523D01*
X135055136Y-79285859D01*
X135185859Y-79155136D01*
X135294523Y-79005572D01*
X135378452Y-78840852D01*
X135435580Y-78665029D01*
X135436651Y-78658269D01*
X135464500Y-78482440D01*
X135464500Y-78297559D01*
X135435580Y-78114969D01*
X135378453Y-77939150D01*
X135378452Y-77939147D01*
X135333026Y-77849995D01*
X135294523Y-77774428D01*
X135274561Y-77746953D01*
X135185864Y-77624870D01*
X135185860Y-77624865D01*
X135055134Y-77494139D01*
X135055129Y-77494135D01*
X134905575Y-77385479D01*
X134905574Y-77385478D01*
X134905572Y-77385477D01*
X134852799Y-77358588D01*
X134740852Y-77301547D01*
X134740849Y-77301546D01*
X134565030Y-77244420D01*
X134552737Y-77242473D01*
X134489602Y-77212544D01*
X134452671Y-77153232D01*
X134453669Y-77083370D01*
X134492279Y-77025137D01*
X134552737Y-76997527D01*
X134554681Y-76997219D01*
X134565029Y-76995580D01*
X134740852Y-76938452D01*
X134905572Y-76854523D01*
X135055136Y-76745859D01*
X135185859Y-76615136D01*
X135294523Y-76465572D01*
X135378452Y-76300852D01*
X135435580Y-76125029D01*
X135464500Y-75942440D01*
X135464500Y-75757559D01*
X135435580Y-75574969D01*
X135378453Y-75399150D01*
X135378452Y-75399147D01*
X135315340Y-75275284D01*
X135294523Y-75234428D01*
X135280639Y-75215318D01*
X135185864Y-75084870D01*
X135185860Y-75084865D01*
X135055134Y-74954139D01*
X135055129Y-74954135D01*
X134905575Y-74845479D01*
X134905574Y-74845478D01*
X134905572Y-74845477D01*
X134852799Y-74818588D01*
X134740852Y-74761547D01*
X134740849Y-74761546D01*
X134565030Y-74704420D01*
X134552737Y-74702473D01*
X134489602Y-74672544D01*
X134452671Y-74613232D01*
X134453669Y-74543370D01*
X134492279Y-74485137D01*
X134552737Y-74457527D01*
X134554681Y-74457219D01*
X134565029Y-74455580D01*
X134740852Y-74398452D01*
X134886943Y-74324015D01*
X134943238Y-74310500D01*
X137588542Y-74310500D01*
X137607870Y-74306655D01*
X137685188Y-74291275D01*
X137741313Y-74280111D01*
X137810903Y-74286340D01*
X137866079Y-74329204D01*
X137889322Y-74395094D01*
X137889500Y-74401729D01*
X137889500Y-83014129D01*
X137927947Y-83207413D01*
X137927950Y-83207425D01*
X137946570Y-83252377D01*
X138003364Y-83389492D01*
X138003371Y-83389505D01*
X138112860Y-83553366D01*
X138112863Y-83553370D01*
X138256537Y-83697044D01*
X138256559Y-83697064D01*
X141214150Y-86654655D01*
X141214179Y-86654686D01*
X141356629Y-86797136D01*
X141356633Y-86797139D01*
X141520494Y-86906628D01*
X141520507Y-86906635D01*
X141649248Y-86959961D01*
X141692159Y-86977735D01*
X141702579Y-86982051D01*
X141799227Y-87001275D01*
X141847550Y-87010887D01*
X141895873Y-87020500D01*
X141895874Y-87020500D01*
X141895875Y-87020500D01*
X142092955Y-87020500D01*
X147265217Y-87020500D01*
X147332256Y-87040185D01*
X147378011Y-87092989D01*
X147387955Y-87162147D01*
X147358930Y-87225703D01*
X147352898Y-87232181D01*
X145121899Y-89463181D01*
X145060576Y-89496666D01*
X145034218Y-89499500D01*
X132465783Y-89499500D01*
X132398744Y-89479815D01*
X132378102Y-89463181D01*
X132036819Y-89121898D01*
X132003334Y-89060575D01*
X132000500Y-89034217D01*
X132000500Y-74525782D01*
X132020185Y-74458743D01*
X132036819Y-74438101D01*
X132435560Y-74039360D01*
X132938919Y-73536000D01*
X133000240Y-73502517D01*
X133069931Y-73507501D01*
G37*
%TD.AperFunction*%
M02*
