%TF.GenerationSoftware,KiCad,Pcbnew,10.0.1*%
%TF.CreationDate,2026-05-03T20:31:44+03:00*%
%TF.ProjectId,Wristband_PCB,57726973-7462-4616-9e64-5f5043422e6b,rev?*%
%TF.SameCoordinates,Original*%
%TF.FileFunction,Soldermask,Bot*%
%TF.FilePolarity,Negative*%
%FSLAX46Y46*%
G04 Gerber Fmt 4.6, Leading zero omitted, Abs format (unit mm)*
G04 Created by KiCad (PCBNEW 10.0.1) date 2026-05-03 20:31:44*
%MOMM*%
%LPD*%
G01*
G04 APERTURE LIST*
G04 Aperture macros list*
%AMRoundRect*
0 Rectangle with rounded corners*
0 $1 Rounding radius*
0 $2 $3 $4 $5 $6 $7 $8 $9 X,Y pos of 4 corners*
0 Add a 4 corners polygon primitive as box body*
4,1,4,$2,$3,$4,$5,$6,$7,$8,$9,$2,$3,0*
0 Add four circle primitives for the rounded corners*
1,1,$1+$1,$2,$3*
1,1,$1+$1,$4,$5*
1,1,$1+$1,$6,$7*
1,1,$1+$1,$8,$9*
0 Add four rect primitives between the rounded corners*
20,1,$1+$1,$2,$3,$4,$5,0*
20,1,$1+$1,$4,$5,$6,$7,0*
20,1,$1+$1,$6,$7,$8,$9,0*
20,1,$1+$1,$8,$9,$2,$3,0*%
G04 Aperture macros list end*
%ADD10C,3.000000*%
%ADD11RoundRect,0.102000X-0.754000X-0.754000X0.754000X-0.754000X0.754000X0.754000X-0.754000X0.754000X0*%
%ADD12C,1.712000*%
%ADD13C,1.552000*%
%ADD14C,1.524000*%
%ADD15C,1.600000*%
G04 APERTURE END LIST*
D10*
%TO.C,DS1*%
X118580000Y-61040000D03*
X118580000Y-90740000D03*
X150080000Y-61040000D03*
X150080000Y-90740000D03*
D11*
X130520000Y-60340000D03*
D12*
X133060000Y-60340000D03*
X135600000Y-60340000D03*
X138140000Y-60340000D03*
%TD*%
D13*
%TO.C,U3*%
X134290000Y-86010000D03*
X134290000Y-83470000D03*
X134290000Y-80930000D03*
X134290000Y-78390000D03*
X134290000Y-73310000D03*
X134290000Y-75850000D03*
X119050000Y-68230000D03*
X134290000Y-68230000D03*
X119050000Y-70770000D03*
X119050000Y-73310000D03*
X119050000Y-75850000D03*
X119050000Y-78390000D03*
X119050000Y-80930000D03*
X119050000Y-83470000D03*
X119050000Y-86010000D03*
X134290000Y-70770000D03*
%TD*%
D14*
%TO.C,U1*%
X149660000Y-86640000D03*
X149660000Y-84100000D03*
X149660000Y-81560000D03*
X149660000Y-79020000D03*
X149660000Y-76480000D03*
X149660000Y-73940000D03*
X149660000Y-71400000D03*
X149660000Y-68860000D03*
%TD*%
D15*
%TO.C,U2*%
X142740000Y-71520000D03*
X142740000Y-74060000D03*
X142740000Y-76600000D03*
X142740000Y-79140000D03*
X142740000Y-81680000D03*
X142740000Y-84220000D03*
X127500000Y-84220000D03*
X127500000Y-81680000D03*
X127500000Y-79140000D03*
X127500000Y-76600000D03*
X127500000Y-74060000D03*
X127500000Y-71520000D03*
%TD*%
M02*
